<?xml version="1.0" encoding="utf-8"?>
<!-- Generator: Adobe Illustrator 16.0.0, SVG Export Plug-In . SVG Version: 6.00 Build 0)  -->
<!DOCTYPE svg PUBLIC "-//W3C//DTD SVG 1.1//EN" "http://www.w3.org/Graphics/SVG/1.1/DTD/svg11.dtd">
<svg version="1.1" xmlns="http://www.w3.org/2000/svg" xmlns:xlink="http://www.w3.org/1999/xlink" x="0px" y="0px" width="750px"
	 height="500px" viewBox="0 0 750 500" enable-background="new 0 0 750 500" xml:space="preserve">
<g id="BACKGROUND">
	<linearGradient id="SVGID_1_" gradientUnits="userSpaceOnUse" x1="588.7773" y1="667.5508" x2="149.0612" y2="-191.3083">
		<stop  offset="0" style="stop-color:#4962B0"/>
		<stop  offset="0.9752" style="stop-color:#4BABE1"/>
	</linearGradient>
	<rect fill="url(#SVGID_1_)" width="750" height="500"/>
</g>
<g id="OBJECTS">
	<g>
		<defs>
			<rect id="SVGID_2_" width="750" height="500"/>
		</defs>
		<clipPath id="SVGID_3_">
			<use xlink:href="#SVGID_2_"  overflow="visible"/>
		</clipPath>
		<path clip-path="url(#SVGID_3_)" fill="#F9F9F9" d="M-17.5-16"/>
		<g clip-path="url(#SVGID_3_)">
			<linearGradient id="SVGID_4_" gradientUnits="userSpaceOnUse" x1="737.4434" y1="-22.1724" x2="97.1583" y2="621.9706">
				<stop  offset="0" style="stop-color:#57F086"/>
				<stop  offset="1" style="stop-color:#57F086;stop-opacity:0"/>
			</linearGradient>
			<path fill="url(#SVGID_4_)" d="M395.653,334.451l-451.161,451.16c-3.143,3.144-8.238,3.144-11.381,0l0,0
				c-3.143-3.143-3.143-8.238,0-11.381l451.161-451.16c3.143-3.144,8.238-3.144,11.381,0l0,0
				C398.796,326.213,398.796,331.309,395.653,334.451z"/>
			<linearGradient id="SVGID_5_" gradientUnits="userSpaceOnUse" x1="-114.1997" y1="746.3584" x2="765.2298" y2="26.9995">
				<stop  offset="0" style="stop-color:#57F086"/>
				<stop  offset="1" style="stop-color:#57F086;stop-opacity:0"/>
			</linearGradient>
			<path fill="url(#SVGID_5_)" d="M602.993,211.112l451.16-451.161c3.143-3.143,3.143-8.238,0-11.381v0
				c-3.143-3.143-8.238-3.143-11.381,0L591.611,199.73c-3.143,3.143-3.143,8.238,0,11.381l0,0
				C594.755,214.254,599.85,214.254,602.993,211.112z"/>
			<linearGradient id="SVGID_6_" gradientUnits="userSpaceOnUse" x1="-394.1255" y1="37.9536" x2="544.444" y2="-34.0462">
				<stop  offset="0" style="stop-color:#57F086"/>
				<stop  offset="1" style="stop-color:#57F086;stop-opacity:0"/>
			</linearGradient>
			<path fill="url(#SVGID_6_)" d="M312.993,198.112l451.161-451.161c3.143-3.143,3.143-8.238,0-11.381v0
				c-3.143-3.143-8.238-3.143-11.381,0L301.612,186.73c-3.143,3.143-3.143,8.238,0,11.381l0,0
				C304.754,201.254,309.85,201.254,312.993,198.112z"/>
			<g>
				<defs>
					<rect id="SVGID_7_" width="750" height="500"/>
				</defs>
				<clipPath id="SVGID_8_">
					<use xlink:href="#SVGID_7_"  overflow="visible"/>
				</clipPath>
				<g clip-path="url(#SVGID_8_)">
					<g>
						<g>
							
								<image overflow="visible" opacity="0.33" width="463" height="464" xlink:href="103E90CD.png"  transform="matrix(1 0 0 1 -123.5 18)">
							</image>
							<g>
								<linearGradient id="SVGID_9_" gradientUnits="userSpaceOnUse" x1="345.7617" y1="813.3447" x2="-113.8951" y2="-84.4627">
									<stop  offset="0" style="stop-color:#4962B0"/>
									<stop  offset="1" style="stop-color:#4BABE1"/>
								</linearGradient>
								<path fill="url(#SVGID_9_)" d="M30.893,89.608L-103.05,223.551c-14.608,14.607-14.608,38.292,0,52.899L30.893,410.394
									c14.607,14.608,38.292,14.608,52.899,0L217.735,276.45c14.608-14.607,14.608-38.292,0-52.899L83.792,89.608
									C69.185,75,45.5,75,30.893,89.608z"/>
							</g>
						</g>
						<g>
							
								<image overflow="visible" opacity="0.33" width="463" height="464" xlink:href="103E90CF.png"  transform="matrix(-1 0 0 -1 984 367.5)">
							</image>
							<g>
								
									<linearGradient id="SVGID_10_" gradientUnits="userSpaceOnUse" x1="1244.2607" y1="1747.8447" x2="784.6039" y2="850.0373" gradientTransform="matrix(-1 0 0 -1 1759 1320)">
									<stop  offset="0" style="stop-color:#4962B0"/>
									<stop  offset="1" style="stop-color:#4BABE1"/>
								</linearGradient>
								<path fill="url(#SVGID_10_)" d="M829.607,295.892l133.943-133.943c14.607-14.607,14.607-38.292,0-52.899L829.607-24.894
									c-14.608-14.608-38.292-14.608-52.899,0L642.765,109.049c-14.607,14.608-14.607,38.292,0,52.899l133.943,133.943
									C791.315,310.5,814.999,310.5,829.607,295.892z"/>
							</g>
						</g>
						<g>
							
								<image overflow="visible" opacity="0.33" width="463" height="464" xlink:href="103E90CA.png"  transform="matrix(-1 0 0 -1 845.5 715)">
							</image>
							<g>
								
									<linearGradient id="SVGID_11_" gradientUnits="userSpaceOnUse" x1="1400.5703" y1="1435.1299" x2="912.5317" y2="481.8869" gradientTransform="matrix(-1 0 0 -1 1759 1320)">
									<stop  offset="0" style="stop-color:#4962B0"/>
									<stop  offset="1" style="stop-color:#4BABE1"/>
								</linearGradient>
								<polygon fill="url(#SVGID_11_)" points="664.657,669.842 851.5,482.999 664.657,296.156 477.814,482.999 								"/>
							</g>
						</g>
					</g>
					<linearGradient id="SVGID_12_" gradientUnits="userSpaceOnUse" x1="735.5156" y1="980.252" x2="531.0874" y2="181.8238">
						<stop  offset="0" style="stop-color:#000000"/>
						<stop  offset="1" style="stop-color:#000000;stop-opacity:0"/>
					</linearGradient>
					<polygon opacity="0.5" fill="url(#SVGID_12_)" points="750,130.5 750,500 380.5,500 					"/>
					<linearGradient id="SVGID_13_" gradientUnits="userSpaceOnUse" x1="164.1602" y1="304.4961" x2="67.7317" y2="-96.6457">
						<stop  offset="0" style="stop-color:#000000"/>
						<stop  offset="1" style="stop-color:#000000;stop-opacity:0"/>
					</linearGradient>
					<polygon opacity="0.5" fill="url(#SVGID_13_)" points="239.5,0 0,239.5 0,0 					"/>
					<linearGradient id="SVGID_14_" gradientUnits="userSpaceOnUse" x1="773.1885" y1="180.5181" x2="541.7596" y2="600.9462">
						<stop  offset="0" style="stop-color:#FFFFFF"/>
						<stop  offset="1" style="stop-color:#FFFFFF;stop-opacity:0"/>
					</linearGradient>
					<polyline opacity="0.3" fill="url(#SVGID_14_)" points="423.5,568 709.5,282 709.5,544 					"/>
					<linearGradient id="SVGID_15_" gradientUnits="userSpaceOnUse" x1="229.168" y1="463.3125" x2="-71.6881" y2="-11.1142">
						<stop  offset="0" style="stop-color:#FFFFFF"/>
						<stop  offset="1" style="stop-color:#FFFFFF;stop-opacity:0"/>
					</linearGradient>
					<polyline opacity="0.3" fill="url(#SVGID_15_)" points="-81.5,349 210,57.5 -81.5,57.5 					"/>
				</g>
				<linearGradient id="SVGID_16_" gradientUnits="userSpaceOnUse" x1="-385.6953" y1="-120.1504" x2="380.5906" y2="322.1349">
					<stop  offset="0" style="stop-color:#000000"/>
					<stop  offset="1" style="stop-color:#000000;stop-opacity:0"/>
				</linearGradient>
				<polyline opacity="0.5" clip-path="url(#SVGID_8_)" fill="url(#SVGID_16_)" points="-96.5,510 475,-61.5 638.5,-61.5 
					-36.75,613.75 				"/>
			</g>
			<g>
				<g>
					
						<image overflow="visible" opacity="0.33" width="3168" height="2528" xlink:href="103E90CB.png"  transform="matrix(0.24 0 0 0.24 34.4136 -45)">
					</image>
					<g>
						<g>
							<path fill="#FFCA4F" d="M337.759,6.302L228.454,115.607c-10.434,10.435-27.352,10.435-37.786,0L60.323-14.739
								C58.381-16.68,59.756-20,62.502-20H314.54c0.817,0,1.601,0.325,2.179,0.903l21.041,21.041
								C338.963,3.147,338.963,5.099,337.759,6.302z"/>
							<path fill="#FFCA4F" d="M554.06,526.541H287.859c-0.817,0-1.602-0.324-2.18-0.902l0,0c-1.204-1.204-1.204-3.155,0-4.359
								l116.387-116.387c10.434-10.434,27.352-10.434,37.785,0l116.387,116.387C558.18,523.221,556.805,526.541,554.06,526.541z"/>
							<path fill="#FFCA4F" d="M759.5,299.551v210.757c0,1.702-1.38,3.082-3.082,3.082h-88.362c-0.817,0-1.602-0.325-2.18-0.903
								l-44.483-44.483c-10.434-10.434-10.434-27.351,0-37.785l132.846-132.846C756.18,295.431,759.5,296.806,759.5,299.551z"/>
						</g>
					</g>
				</g>
				<linearGradient id="SVGID_17_" gradientUnits="userSpaceOnUse" x1="194.5986" y1="587.123" x2="466.7141" y2="396.2508">
					<stop  offset="0" style="stop-color:#57F086"/>
					<stop  offset="1" style="stop-color:#57F086;stop-opacity:0"/>
				</linearGradient>
				<path fill="url(#SVGID_17_)" d="M396.5,500h-140l32.89-32.89c20.5-20.5,53.72-20.5,74.22,0L396.5,500z"/>
				<linearGradient id="SVGID_18_" gradientUnits="userSpaceOnUse" x1="213.9043" y1="272.5615" x2="547.5472" y2="-174.8673">
					<stop  offset="0" style="stop-color:#57F086"/>
					<stop  offset="1" style="stop-color:#57F086;stop-opacity:0"/>
				</linearGradient>
				<path fill="url(#SVGID_18_)" d="M555.5,0L424.11,131.39c-20.5,20.5-53.72,20.5-74.22,0l-64.78-64.78
					C266.99,48.49,264.89,20.43,278.8,0H555.5z"/>
				<linearGradient id="SVGID_19_" gradientUnits="userSpaceOnUse" x1="-75.7534" y1="128.1367" x2="88.1513" y2="13.1676">
					<stop  offset="0" style="stop-color:#57F086"/>
					<stop  offset="1" style="stop-color:#57F086;stop-opacity:0"/>
				</linearGradient>
				<path fill="url(#SVGID_19_)" d="M18.39,112.11L0,130.5v-111l18.39,18.39C38.89,58.39,38.89,91.61,18.39,112.11z"/>
				<linearGradient id="SVGID_20_" gradientUnits="userSpaceOnUse" x1="513.2139" y1="249.9717" x2="846.8586" y2="87.9704">
					<stop  offset="0" style="stop-color:#57F086"/>
					<stop  offset="1" style="stop-color:#57F086;stop-opacity:0"/>
				</linearGradient>
				<path fill="url(#SVGID_20_)" d="M750,49.76v170.48l-48.13-48.13c-20.49-20.5-20.49-53.72,0-74.22L750,49.76z"/>
			</g>
		</g>
		<g clip-path="url(#SVGID_3_)">
			<g>
				
					<image overflow="visible" opacity="0.33" width="1395" height="1395" xlink:href="103E90D5.png"  transform="matrix(0.24 0 0 0.24 532.749 -198.9971)">
				</image>
				<g>
					<path fill="#FFCA4F" d="M821.474-110.056L621.689,89.728c-14.627,14.627-38.343,14.627-52.97,0l0,0
						c-14.627-14.627-14.627-38.343,0-52.97l199.784-199.785c14.627-14.627,38.343-14.627,52.97,0l0,0
						C836.102-148.399,836.102-124.684,821.474-110.056z"/>
				</g>
			</g>
			<linearGradient id="SVGID_21_" gradientUnits="userSpaceOnUse" x1="-418.7388" y1="819.334" x2="321.4637" y2="366.9874">
				<stop  offset="0" style="stop-color:#FFFFFF"/>
				<stop  offset="1" style="stop-color:#FFFFFF;stop-opacity:0"/>
			</linearGradient>
			<path opacity="0.5" fill="url(#SVGID_21_)" d="M254.974,411.443L55.189,611.229c-14.627,14.627-38.343,14.627-52.97,0l0,0
				c-14.627-14.628-14.627-38.343,0-52.971l199.784-199.784c14.627-14.627,38.343-14.627,52.97,0l0,0
				C269.601,373.102,269.601,396.816,254.974,411.443z"/>
			<g>
				
					<image overflow="visible" opacity="0.33" width="1860" height="1860" xlink:href="103E90D7.png"  transform="matrix(0.24 0 0 0.24 -344.4561 161.5439)">
				</image>
				<g>
					<path fill="#FFCA4F" d="M-304.026,482.972l280.998-280.998c20.573-20.573,53.929-20.573,74.502,0l0,0
						c20.573,20.573,20.573,53.929,0,74.502l-280.998,280.997c-20.573,20.573-53.929,20.573-74.502,0h0
						C-324.6,536.9-324.6,503.545-304.026,482.972z"/>
				</g>
			</g>
		</g>
		<g clip-path="url(#SVGID_3_)">
			<g>
				
					<line fill="none" stroke="#F9F9F9" stroke-width="3.2433" stroke-miterlimit="10" x1="59.536" y1="379.903" x2="42.5" y2="393.017"/>
				
					<line fill="none" stroke="#F9F9F9" stroke-width="3.2433" stroke-miterlimit="10" x1="59.536" y1="400.636" x2="42.5" y2="413.749"/>
				
					<line fill="none" stroke="#F9F9F9" stroke-width="3.2433" stroke-miterlimit="10" x1="59.536" y1="421.368" x2="42.5" y2="434.481"/>
				
					<line fill="none" stroke="#F9F9F9" stroke-width="3.2433" stroke-miterlimit="10" x1="59.536" y1="442.101" x2="42.5" y2="455.214"/>
			</g>
			<g>
				
					<line fill="none" stroke="#F9F9F9" stroke-width="3.2433" stroke-miterlimit="10" x1="382.536" y1="35.903" x2="365.5" y2="49.017"/>
				
					<line fill="none" stroke="#F9F9F9" stroke-width="3.2433" stroke-miterlimit="10" x1="382.536" y1="56.636" x2="365.5" y2="69.75"/>
				
					<line fill="none" stroke="#F9F9F9" stroke-width="3.2433" stroke-miterlimit="10" x1="382.536" y1="77.368" x2="365.5" y2="90.482"/>
				
					<line fill="none" stroke="#F9F9F9" stroke-width="3.2433" stroke-miterlimit="10" x1="382.536" y1="98.101" x2="365.5" y2="111.214"/>
			</g>
			<g>
				
					<line fill="none" stroke="#F9F9F9" stroke-width="3.2433" stroke-miterlimit="10" x1="653.536" y1="341.903" x2="636.5" y2="355.017"/>
				
					<line fill="none" stroke="#F9F9F9" stroke-width="3.2433" stroke-miterlimit="10" x1="653.536" y1="362.636" x2="636.5" y2="375.749"/>
				
					<line fill="none" stroke="#F9F9F9" stroke-width="3.2433" stroke-miterlimit="10" x1="653.536" y1="383.368" x2="636.5" y2="396.481"/>
				
					<line fill="none" stroke="#F9F9F9" stroke-width="3.2433" stroke-miterlimit="10" x1="653.536" y1="404.101" x2="636.5" y2="417.214"/>
			</g>
			<g opacity="0.5">
				<path fill="#F9F9F9" d="M190.474,510.264c0.007,0.008,0.011,0.016,0.018,0.022c1.135,1.135,2.975,1.136,4.109,0.001
					c0.007-0.008,0.012-0.017,0.02-0.024c0.007-0.007,0.016-0.012,0.023-0.019c1.135-1.135,1.134-2.975,0-4.109
					c-0.007-0.008-0.017-0.012-0.024-0.02s-0.012-0.017-0.02-0.024c-1.134-1.134-2.974-1.134-4.109,0
					c-0.007,0.008-0.012,0.017-0.02,0.024s-0.016,0.012-0.023,0.02c-1.135,1.134-1.135,2.975,0,4.109
					C190.457,510.252,190.466,510.256,190.474,510.264z"/>
				<path fill="#F9F9F9" d="M215.56,510.263c0.007,0.008,0.012,0.017,0.02,0.024c1.134,1.135,2.974,1.135,4.108,0
					c0.008-0.008,0.012-0.017,0.02-0.023c0.007-0.008,0.017-0.013,0.024-0.02c1.134-1.135,1.134-2.975,0-4.109
					c-0.008-0.008-0.017-0.012-0.024-0.02s-0.012-0.017-0.02-0.023c-1.135-1.135-2.974-1.135-4.109,0
					c-0.007,0.007-0.012,0.016-0.02,0.023s-0.016,0.012-0.023,0.02c-1.135,1.135-1.135,2.975,0,4.108
					C215.543,510.251,215.552,510.256,215.56,510.263z"/>
				<path fill="#F9F9F9" d="M203.017,497.721c0.007,0.008,0.012,0.016,0.019,0.022c1.135,1.135,2.974,1.135,4.109,0.001
					c0.007-0.008,0.012-0.017,0.02-0.024c0.007-0.007,0.016-0.012,0.023-0.019c1.135-1.136,1.135-2.975,0-4.109
					c-0.007-0.008-0.016-0.012-0.022-0.019c-0.008-0.008-0.013-0.018-0.021-0.025c-1.135-1.134-2.975-1.134-4.109,0
					c-0.007,0.008-0.012,0.017-0.019,0.024c-0.008,0.007-0.017,0.012-0.024,0.019c-1.134,1.136-1.135,2.975,0,4.109
					C203,497.708,203.009,497.713,203.017,497.721z"/>
				<path fill="#F9F9F9" d="M215.559,485.177c0.007,0.007,0.012,0.017,0.02,0.023c1.135,1.135,2.975,1.135,4.109,0.001
					c0.008-0.008,0.012-0.017,0.02-0.024c0.008-0.008,0.017-0.012,0.024-0.02c1.134-1.135,1.134-2.975,0-4.109
					c-0.007-0.007-0.017-0.012-0.024-0.02c-0.007-0.007-0.012-0.016-0.02-0.023c-1.135-1.135-2.975-1.135-4.109,0.001
					c-0.007,0.007-0.012,0.016-0.02,0.023c-0.007,0.007-0.016,0.012-0.024,0.019c-1.134,1.135-1.134,2.975,0,4.109
					C215.543,485.165,215.552,485.169,215.559,485.177z"/>
				<path fill="#F9F9F9" d="M269.817,506.135c-1.135-1.135-2.975-1.135-4.109,0l0,0c-1.091,1.091-1.121,2.826-0.115,3.968
					c0.041,0.046,0.071,0.097,0.115,0.142l0,0c1.135,1.134,2.975,1.134,4.109,0h0C270.952,509.109,270.952,507.27,269.817,506.135z"
					/>
				<path fill="#F9F9F9" d="M240.646,485.177c0.007,0.008,0.012,0.017,0.02,0.024c1.135,1.134,2.974,1.134,4.109-0.001
					s1.135-2.974,0-4.108c-0.007-0.008-0.016-0.013-0.024-0.02c-0.007-0.008-0.012-0.017-0.019-0.024
					c-1.135-1.134-2.975-1.134-4.109,0c-1.135,1.135-1.135,2.975,0,4.109C240.629,485.165,240.638,485.169,240.646,485.177z"/>
				<path fill="#F9F9F9" d="M228.103,472.634c0.007,0.007,0.012,0.017,0.019,0.023c1.135,1.135,2.975,1.135,4.109,0
					c1.134-1.135,1.134-2.975,0-4.109c-0.007-0.007-0.017-0.012-0.024-0.02c-0.007-0.007-0.012-0.016-0.02-0.023
					c-1.135-1.135-2.975-1.135-4.109,0.001c-1.135,1.134-1.135,2.974,0,4.108C228.086,472.621,228.095,472.626,228.103,472.634z"/>
				<path fill="#F9F9F9" d="M182.058,497.744c0.008-0.008,0.012-0.017,0.02-0.024c0.007-0.007,0.017-0.012,0.024-0.02
					c1.134-1.135,1.134-2.974,0-4.109c-1.134-1.134-2.974-1.134-4.109,0c-0.007,0.008-0.012,0.017-0.02,0.024
					s-0.016,0.012-0.023,0.02c-1.135,1.134-1.135,2.975,0,4.109C179.083,498.878,180.924,498.878,182.058,497.744z"/>
				<path fill="#F9F9F9" d="M194.602,485.2c0.007-0.007,0.012-0.017,0.02-0.023c0.007-0.008,0.016-0.012,0.023-0.02
					c1.135-1.135,1.135-2.975,0-4.109c-1.135-1.134-2.975-1.134-4.109,0c-0.007,0.008-0.012,0.017-0.019,0.024
					c-0.008,0.007-0.017,0.012-0.024,0.019c-1.134,1.136-1.135,2.975,0,4.109C191.626,486.335,193.467,486.335,194.602,485.2z"/>
				<path fill="#F9F9F9" d="M207.145,472.657c0.007-0.007,0.012-0.017,0.019-0.023c0.008-0.007,0.017-0.013,0.024-0.02
					c1.135-1.135,1.135-2.975,0-4.109s-2.975-1.135-4.109,0.001c-0.007,0.007-0.012,0.016-0.02,0.023
					c-0.007,0.007-0.016,0.012-0.024,0.019c-1.134,1.135-1.134,2.975,0,4.109C204.17,473.792,206.01,473.792,207.145,472.657z"/>
				<path fill="#F9F9F9" d="M257.293,493.615c-0.007-0.008-0.012-0.017-0.02-0.023c-1.134-1.135-2.974-1.135-4.108,0
					c-1.135,1.135-1.135,2.974,0,4.109c0.007,0.007,0.016,0.012,0.023,0.019c0.007,0.008,0.012,0.017,0.02,0.024l0,0
					c1.135,1.134,2.975,1.134,4.109,0h0c1.135-1.135,1.134-2.975,0-4.109C257.31,493.627,257.301,493.623,257.293,493.615z"/>
				<circle fill="#F9F9F9" cx="217.633" cy="458.06" r="2.905"/>
				<path fill="#F9F9F9" d="M207.164,543.744c-0.007-0.007-0.012-0.016-0.02-0.023c-1.135-1.135-2.974-1.135-4.109,0
					s-1.135,2.975,0,4.109c0.007,0.007,0.016,0.012,0.023,0.019c0.008,0.008,0.012,0.017,0.02,0.024
					c0.567,0.567,1.311,0.851,2.055,0.851c0.743,0,1.487-0.283,2.055-0.851c0.61-0.609,0.881-1.423,0.835-2.221
					c-0.04-0.688-0.311-1.363-0.835-1.889C207.18,543.757,207.171,543.752,207.164,543.744z"/>
				<path fill="#F9F9F9" d="M194.621,531.201c-0.008-0.007-0.012-0.016-0.02-0.023c-1.134-1.135-2.974-1.135-4.109,0
					s-1.134,2.975,0,4.108c0.008,0.008,0.017,0.013,0.024,0.021c0.007,0.007,0.012,0.016,0.019,0.023
					c1.135,1.135,2.974,1.135,4.109,0s1.135-2.975,0-4.109C194.637,531.214,194.628,531.209,194.621,531.201z"/>
				<path fill="#F9F9F9" d="M182.077,518.658c-0.007-0.008-0.012-0.017-0.019-0.023c-1.135-1.135-2.974-1.135-4.109,0
					s-1.135,2.975,0,4.109c0.008,0.008,0.017,0.012,0.025,0.02c0.007,0.008,0.011,0.016,0.018,0.022
					c1.135,1.135,2.975,1.136,4.109,0.001s1.134-2.975,0-4.109C182.094,518.67,182.085,518.665,182.077,518.658z"/>
				<circle fill="#F9F9F9" cx="167.504" cy="508.189" r="2.906"/>
				<path fill="#F9F9F9" d="M219.707,531.201c-0.007-0.007-0.012-0.016-0.02-0.023c-1.134-1.135-2.974-1.135-4.108,0
					c-0.008,0.008-0.012,0.017-0.02,0.023c-0.007,0.008-0.017,0.013-0.024,0.02c-1.135,1.135-1.135,2.975,0,4.109
					c0.007,0.007,0.016,0.012,0.023,0.019c0.008,0.008,0.012,0.017,0.02,0.024c0.567,0.567,1.311,0.851,2.055,0.851
					c0.743,0,1.487-0.283,2.055-0.851c0.007-0.007,0.011-0.016,0.018-0.023c0.008-0.007,0.017-0.012,0.025-0.02
					c1.135-1.135,1.135-2.975,0-4.109C219.724,531.214,219.715,531.209,219.707,531.201z"/>
				<path fill="#F9F9F9" d="M207.164,518.658c-0.007-0.008-0.012-0.016-0.019-0.023c-1.135-1.135-2.974-1.135-4.109,0
					c-0.007,0.008-0.012,0.016-0.02,0.023c-0.007,0.007-0.016,0.012-0.024,0.02c-1.135,1.135-1.134,2.975,0,4.108
					c0.008,0.008,0.017,0.013,0.024,0.021c0.007,0.007,0.012,0.016,0.019,0.023c1.135,1.135,2.974,1.135,4.109,0
					c0.007-0.008,0.012-0.017,0.019-0.023c0.008-0.008,0.017-0.013,0.024-0.02c1.135-1.135,1.135-2.975,0-4.109
					C207.18,518.67,207.171,518.666,207.164,518.658z"/>
				<path fill="#F9F9F9" d="M232.246,518.653c-0.006-0.006-0.009-0.013-0.015-0.019c-0.041-0.041-0.089-0.069-0.131-0.107
					c-0.065-0.055-0.129-0.112-0.198-0.161c-1.138-0.847-2.748-0.764-3.78,0.269c-0.007,0.008-0.012,0.017-0.02,0.023
					c-0.007,0.008-0.016,0.012-0.023,0.02c-1.135,1.135-1.135,2.975,0,4.109c0.007,0.007,0.016,0.012,0.024,0.02
					c0.007,0.007,0.012,0.017,0.019,0.023c1.135,1.135,2.974,1.135,4.109,0c0.008-0.008,0.013-0.018,0.021-0.025
					c0.007-0.008,0.015-0.011,0.022-0.018c0.284-0.284,0.497-0.611,0.638-0.961c0.426-1.05,0.213-2.297-0.638-3.148
					C232.265,518.669,232.255,518.662,232.246,518.653z"/>
				<path fill="#F9F9F9" d="M244.793,506.115c-0.007-0.008-0.012-0.017-0.02-0.023c-1.134-1.135-2.974-1.135-4.108,0
					c-0.008,0.007-0.012,0.016-0.02,0.023c-0.008,0.008-0.017,0.012-0.024,0.02c-1.135,1.135-1.135,2.975,0,4.109
					c0.007,0.007,0.015,0.011,0.022,0.018c0.007,0.008,0.013,0.018,0.021,0.025c0.45,0.45,1.012,0.714,1.597,0.807
					c0.712,0.113,1.452-0.047,2.073-0.463c0.077-0.05,0.146-0.113,0.218-0.171c0.073-0.06,0.153-0.104,0.221-0.173
					c0.007-0.008,0.012-0.017,0.02-0.023c0.007-0.008,0.016-0.013,0.023-0.02h0c1.134-1.135,1.134-2.975,0-4.109
					C244.81,506.127,244.801,506.123,244.793,506.115z"/>
				<path fill="#F9F9F9" d="M232.25,493.572c-0.007-0.008-0.012-0.017-0.019-0.024c-1.135-1.134-2.975-1.134-4.109,0
					c-0.008,0.008-0.012,0.017-0.02,0.024c-0.007,0.007-0.017,0.012-0.024,0.02c-1.135,1.135-1.135,2.974,0,4.108
					c0.007,0.008,0.017,0.013,0.024,0.02c0.007,0.008,0.012,0.017,0.02,0.024c1.135,1.134,2.974,1.134,4.109,0
					c0.007-0.008,0.012-0.017,0.019-0.024c0.008-0.007,0.017-0.012,0.024-0.02c1.135-1.135,1.135-2.974,0-4.108
					C232.267,493.584,232.258,493.579,232.25,493.572z"/>
				<path fill="#F9F9F9" d="M217.633,555.413c-0.744,0-1.487,0.284-2.055,0.851c-0.525,0.525-0.795,1.201-0.835,1.889
					c-0.046,0.798,0.225,1.611,0.835,2.221c0.567,0.567,1.311,0.851,2.055,0.851c0.743,0,1.487-0.283,2.055-0.851
					c0.61-0.609,0.881-1.423,0.835-2.221c-0.04-0.688-0.311-1.363-0.835-1.889C219.121,555.697,218.377,555.413,217.633,555.413z"/>
				<path fill="#F9F9F9" d="M231.927,543.473c-1.139-0.866-2.765-0.792-3.805,0.248c-0.007,0.008-0.013,0.018-0.02,0.024
					s-0.016,0.012-0.023,0.019c-0.525,0.525-0.795,1.201-0.835,1.889c-0.046,0.798,0.225,1.611,0.835,2.221
					c0.567,0.567,1.311,0.851,2.055,0.851c0.743,0,1.487-0.283,2.055-0.851c0.007-0.007,0.011-0.016,0.018-0.023
					c0.008-0.007,0.017-0.012,0.025-0.02c1.135-1.135,1.135-2.975,0-4.109C232.136,543.627,232.03,543.552,231.927,543.473z"/>
				<path fill="#F9F9F9" d="M241.626,530.54c-0.35,0.142-0.677,0.354-0.961,0.638c-0.007,0.007-0.01,0.015-0.017,0.021
					c-0.009,0.008-0.019,0.014-0.027,0.021c-1.04,1.04-1.115,2.666-0.248,3.806c0.079,0.103,0.153,0.209,0.248,0.304
					c1.135,1.135,2.974,1.135,4.109,0c0.008-0.008,0.013-0.018,0.021-0.025c0.007-0.008,0.015-0.011,0.022-0.018
					c0.284-0.284,0.497-0.611,0.638-0.961c0.426-1.05,0.213-2.297-0.638-3.148C243.923,530.326,242.676,530.114,241.626,530.54z"/>
				<path fill="#F9F9F9" d="M253.208,518.635L253.208,518.635c-0.008,0.008-0.012,0.017-0.02,0.023
					c-0.007,0.008-0.016,0.012-0.023,0.02c-0.07,0.07-0.119,0.152-0.18,0.229c-0.049,0.063-0.105,0.121-0.148,0.188
					c-0.4,0.587-0.567,1.282-0.491,1.963c0.071,0.632,0.335,1.245,0.82,1.73c0.45,0.45,1.012,0.714,1.597,0.807
					c0.712,0.113,1.452-0.047,2.073-0.463c0.077-0.05,0.146-0.113,0.218-0.171c0.073-0.06,0.153-0.104,0.221-0.173
					c0.007-0.008,0.012-0.017,0.02-0.023c0.007-0.008,0.016-0.013,0.023-0.02h0c1.135-1.135,1.134-2.975,0-4.109
					C256.183,517.5,254.343,517.5,253.208,518.635z"/>
			</g>
			<g opacity="0.5">
				<path fill="#F9F9F9" d="M252.474,209.264c0.007,0.007,0.011,0.016,0.018,0.023c1.135,1.134,2.975,1.135,4.109,0
					c0.007-0.008,0.012-0.017,0.02-0.024c0.007-0.007,0.016-0.012,0.023-0.019c1.135-1.135,1.134-2.974,0-4.109
					c-0.007-0.007-0.017-0.012-0.024-0.02s-0.012-0.016-0.02-0.024c-1.134-1.134-2.974-1.134-4.109,0
					c-0.007,0.008-0.012,0.017-0.02,0.024s-0.016,0.012-0.023,0.019c-1.135,1.135-1.135,2.975,0,4.109
					C252.457,209.251,252.466,209.256,252.474,209.264z"/>
				<path fill="#F9F9F9" d="M277.56,209.263c0.007,0.008,0.012,0.017,0.02,0.024c1.134,1.134,2.974,1.134,4.108,0
					c0.008-0.008,0.012-0.017,0.02-0.024s0.017-0.012,0.024-0.02c1.134-1.135,1.134-2.974,0-4.109
					c-0.008-0.007-0.017-0.012-0.024-0.019c-0.007-0.008-0.012-0.017-0.02-0.024c-1.135-1.135-2.974-1.135-4.109,0
					c-0.007,0.007-0.012,0.016-0.02,0.023s-0.016,0.012-0.023,0.02c-1.135,1.135-1.135,2.974,0,4.108
					C277.543,209.251,277.552,209.255,277.56,209.263z"/>
				<path fill="#F9F9F9" d="M265.017,196.721c0.007,0.007,0.012,0.016,0.019,0.022c1.135,1.135,2.974,1.135,4.109,0
					c0.007-0.007,0.012-0.016,0.02-0.023c0.007-0.008,0.016-0.012,0.023-0.02c1.135-1.135,1.135-2.975,0-4.109
					c-0.007-0.007-0.016-0.012-0.022-0.019c-0.008-0.008-0.013-0.018-0.021-0.025c-1.135-1.134-2.975-1.134-4.109,0
					c-0.007,0.007-0.012,0.016-0.019,0.023c-0.008,0.007-0.017,0.012-0.024,0.02c-1.134,1.135-1.135,2.975,0,4.109
					C265,196.708,265.009,196.713,265.017,196.721z"/>
				<path fill="#F9F9F9" d="M277.559,184.176c0.007,0.008,0.012,0.017,0.02,0.024c1.135,1.135,2.975,1.135,4.109,0
					c0.008-0.008,0.012-0.017,0.02-0.024c0.008-0.007,0.017-0.012,0.024-0.02c1.134-1.134,1.134-2.974,0-4.109
					c-0.007-0.007-0.017-0.012-0.024-0.02s-0.012-0.016-0.02-0.024c-1.135-1.134-2.975-1.134-4.109,0
					c-0.007,0.007-0.012,0.016-0.02,0.024c-0.007,0.007-0.016,0.012-0.024,0.019c-1.134,1.135-1.134,2.974,0,4.109
					C277.543,184.165,277.552,184.169,277.559,184.176z"/>
				<path fill="#F9F9F9" d="M331.817,205.135c-1.135-1.135-2.975-1.135-4.109,0v0c-1.091,1.091-1.121,2.827-0.115,3.968
					c0.041,0.046,0.071,0.097,0.115,0.141c0,0,0,0,0,0c1.135,1.134,2.975,1.134,4.109,0l0,0
					C332.952,208.109,332.952,206.27,331.817,205.135z"/>
				<path fill="#F9F9F9" d="M302.646,184.177c0.007,0.007,0.012,0.016,0.02,0.024c1.135,1.134,2.974,1.134,4.109,0
					c1.135-1.134,1.135-2.974,0-4.108c-0.007-0.008-0.016-0.013-0.024-0.02c-0.007-0.007-0.012-0.016-0.019-0.023
					c-1.135-1.135-2.975-1.135-4.109,0c-1.135,1.135-1.135,2.974,0,4.109C302.629,184.165,302.638,184.169,302.646,184.177z"/>
				<path fill="#F9F9F9" d="M290.103,171.633c0.007,0.008,0.012,0.017,0.019,0.024c1.135,1.135,2.975,1.135,4.109,0
					c1.134-1.134,1.134-2.974,0-4.109c-0.007-0.007-0.017-0.012-0.024-0.02s-0.012-0.016-0.02-0.024
					c-1.135-1.134-2.975-1.134-4.109,0c-1.135,1.134-1.135,2.974,0,4.109C290.086,171.622,290.095,171.626,290.103,171.633z"/>
				<path fill="#F9F9F9" d="M244.058,196.744c0.008-0.007,0.012-0.016,0.02-0.024c0.007-0.007,0.017-0.012,0.024-0.02
					c1.134-1.134,1.134-2.974,0-4.109c-1.134-1.134-2.974-1.134-4.109,0c-0.007,0.008-0.012,0.017-0.02,0.024
					s-0.016,0.012-0.023,0.019c-1.135,1.135-1.135,2.975,0,4.109C241.083,197.878,242.924,197.878,244.058,196.744z"/>
				<path fill="#F9F9F9" d="M256.602,184.2c0.007-0.007,0.012-0.016,0.02-0.023s0.016-0.012,0.023-0.019
					c1.135-1.135,1.135-2.975,0-4.11c-1.135-1.134-2.975-1.134-4.109,0c-0.007,0.007-0.012,0.016-0.019,0.023
					c-0.008,0.007-0.017,0.012-0.024,0.02c-1.134,1.135-1.135,2.975,0,4.109C253.626,185.335,255.467,185.335,256.602,184.2z"/>
				<path fill="#F9F9F9" d="M269.145,171.658c0.007-0.008,0.012-0.017,0.019-0.024c0.008-0.007,0.017-0.012,0.024-0.02
					c1.135-1.135,1.135-2.975,0-4.109c-1.135-1.134-2.975-1.134-4.109,0c-0.007,0.007-0.012,0.016-0.02,0.024
					c-0.007,0.007-0.016,0.012-0.024,0.019c-1.134,1.135-1.134,2.974,0,4.109C266.17,172.792,268.01,172.792,269.145,171.658z"/>
				<path fill="#F9F9F9" d="M319.293,192.615c-0.007-0.007-0.012-0.016-0.02-0.023c-1.134-1.135-2.974-1.135-4.109,0
					s-1.135,2.974,0,4.109c0.007,0.007,0.016,0.012,0.023,0.02c0.007,0.008,0.012,0.016,0.02,0.023c0,0,0,0,0,0
					c1.135,1.134,2.975,1.134,4.109,0l0,0c1.135-1.135,1.134-2.974,0-4.109C319.31,192.627,319.301,192.623,319.293,192.615z"/>
				<circle fill="#F9F9F9" cx="279.633" cy="157.06" r="2.905"/>
				<path fill="#F9F9F9" d="M269.164,242.745c-0.007-0.007-0.012-0.016-0.02-0.024c-1.135-1.134-2.974-1.134-4.109,0
					c-1.135,1.135-1.135,2.975,0,4.109c0.007,0.008,0.016,0.012,0.023,0.02c0.008,0.007,0.012,0.017,0.02,0.024
					c0.567,0.568,1.311,0.851,2.055,0.851c0.743,0,1.487-0.284,2.055-0.851c0.61-0.61,0.881-1.423,0.835-2.221
					c-0.04-0.687-0.311-1.363-0.835-1.888C269.18,242.757,269.171,242.752,269.164,242.745z"/>
				<path fill="#F9F9F9" d="M256.621,230.202c-0.008-0.007-0.012-0.017-0.02-0.024c-1.134-1.135-2.974-1.135-4.109,0
					s-1.134,2.974,0,4.109c0.008,0.007,0.017,0.012,0.024,0.02c0.007,0.007,0.012,0.016,0.019,0.023
					c1.135,1.135,2.974,1.135,4.109,0c1.135-1.134,1.135-2.974,0-4.109C256.637,230.213,256.628,230.209,256.621,230.202z"/>
				<path fill="#F9F9F9" d="M244.077,217.658c-0.007-0.007-0.012-0.017-0.019-0.024c-1.135-1.134-2.974-1.134-4.109,0
					c-1.135,1.135-1.135,2.975,0,4.109c0.008,0.008,0.017,0.013,0.025,0.02c0.007,0.007,0.011,0.016,0.018,0.023
					c1.135,1.134,2.975,1.135,4.109,0c1.135-1.135,1.134-2.975,0-4.109C244.094,217.67,244.085,217.666,244.077,217.658z"/>
				<circle fill="#F9F9F9" cx="229.504" cy="207.189" r="2.906"/>
				<path fill="#F9F9F9" d="M281.707,230.202c-0.007-0.007-0.012-0.017-0.02-0.023c-1.134-1.135-2.974-1.135-4.108,0
					c-0.008,0.007-0.012,0.016-0.02,0.023s-0.017,0.012-0.024,0.019c-1.135,1.135-1.135,2.975,0,4.109
					c0.007,0.008,0.016,0.012,0.023,0.02c0.008,0.007,0.012,0.017,0.02,0.024c0.567,0.568,1.311,0.851,2.055,0.851
					c0.743,0,1.487-0.284,2.055-0.851c0.007-0.007,0.011-0.016,0.018-0.023c0.008-0.008,0.017-0.013,0.025-0.02
					c1.134-1.135,1.134-2.975,0-4.109C281.724,230.214,281.715,230.209,281.707,230.202z"/>
				<path fill="#F9F9F9" d="M269.164,217.658c-0.007-0.007-0.012-0.016-0.019-0.023c-1.135-1.135-2.974-1.135-4.109,0
					c-0.007,0.007-0.012,0.016-0.02,0.023s-0.016,0.012-0.024,0.02c-1.135,1.135-1.134,2.974,0,4.109
					c0.008,0.007,0.017,0.012,0.024,0.02c0.007,0.007,0.012,0.016,0.019,0.023c1.135,1.135,2.974,1.135,4.109,0
					c0.007-0.007,0.012-0.016,0.019-0.023c0.008-0.007,0.017-0.012,0.024-0.019c1.135-1.135,1.135-2.975,0-4.109
					C269.18,217.67,269.171,217.666,269.164,217.658z"/>
				<path fill="#F9F9F9" d="M294.246,217.654c-0.006-0.006-0.009-0.013-0.015-0.019c-0.041-0.041-0.089-0.069-0.131-0.107
					c-0.065-0.055-0.129-0.112-0.198-0.161c-1.138-0.846-2.748-0.764-3.78,0.269c-0.007,0.007-0.012,0.016-0.02,0.023
					c-0.007,0.008-0.016,0.012-0.023,0.02c-1.135,1.134-1.135,2.974,0,4.109c0.007,0.007,0.016,0.012,0.023,0.02
					c0.007,0.007,0.012,0.016,0.02,0.023c1.135,1.135,2.974,1.135,4.109,0c0.008-0.008,0.013-0.018,0.021-0.026
					c0.007-0.007,0.015-0.01,0.022-0.017c0.284-0.284,0.497-0.612,0.638-0.961c0.426-1.049,0.213-2.297-0.638-3.148
					C294.265,217.669,294.255,217.663,294.246,217.654z"/>
				<path fill="#F9F9F9" d="M306.793,205.115c-0.007-0.007-0.012-0.016-0.02-0.023c-1.134-1.135-2.974-1.135-4.109,0
					c-0.007,0.007-0.012,0.016-0.019,0.024c-0.008,0.007-0.017,0.012-0.024,0.019c-1.135,1.135-1.135,2.974,0,4.109
					c0.007,0.007,0.015,0.011,0.022,0.019c0.007,0.008,0.013,0.017,0.021,0.025c0.45,0.45,1.012,0.714,1.597,0.807
					c0.712,0.113,1.452-0.048,2.073-0.464c0.077-0.05,0.146-0.113,0.218-0.17c0.073-0.06,0.153-0.105,0.221-0.173
					c0.007-0.008,0.012-0.016,0.02-0.024c0.007-0.007,0.016-0.012,0.023-0.019l0,0c1.135-1.135,1.134-2.974,0-4.109
					C306.81,205.127,306.801,205.123,306.793,205.115z"/>
				<path fill="#F9F9F9" d="M294.25,192.572c-0.007-0.007-0.012-0.016-0.019-0.023c-1.135-1.135-2.975-1.135-4.109,0
					c-0.008,0.007-0.012,0.016-0.02,0.023s-0.017,0.012-0.024,0.02c-1.135,1.134-1.135,2.974,0,4.108
					c0.007,0.008,0.017,0.012,0.024,0.02c0.007,0.008,0.012,0.017,0.02,0.024c1.135,1.135,2.974,1.135,4.109,0
					c0.007-0.007,0.012-0.016,0.019-0.024c0.008-0.007,0.017-0.012,0.024-0.02c1.135-1.134,1.135-2.974,0-4.108
					C294.267,192.584,294.258,192.579,294.25,192.572z"/>
				<path fill="#F9F9F9" d="M279.633,254.413c-0.744,0-1.487,0.284-2.055,0.851c-0.525,0.525-0.795,1.201-0.835,1.889
					c-0.046,0.798,0.225,1.611,0.835,2.221c0.567,0.567,1.311,0.851,2.055,0.851c0.743,0,1.487-0.283,2.055-0.851
					c0.61-0.609,0.881-1.423,0.835-2.221c-0.04-0.688-0.311-1.363-0.835-1.888C281.121,254.697,280.377,254.413,279.633,254.413z"/>
				<path fill="#F9F9F9" d="M293.927,242.473c-1.139-0.867-2.765-0.792-3.805,0.248c-0.007,0.008-0.013,0.017-0.02,0.025
					c-0.007,0.007-0.016,0.011-0.023,0.018c-0.525,0.525-0.795,1.201-0.835,1.888c-0.046,0.798,0.225,1.611,0.835,2.221
					c0.567,0.568,1.311,0.851,2.055,0.851c0.743,0,1.487-0.284,2.055-0.851c0.007-0.007,0.011-0.016,0.018-0.023
					c0.008-0.008,0.017-0.013,0.025-0.02c1.134-1.135,1.134-2.975,0-4.109C294.136,242.626,294.03,242.552,293.927,242.473z"/>
				<path fill="#F9F9F9" d="M303.626,229.54c-0.35,0.142-0.677,0.354-0.961,0.638c-0.007,0.006-0.01,0.015-0.017,0.021
					c-0.009,0.008-0.019,0.013-0.027,0.021c-1.04,1.041-1.115,2.667-0.248,3.805c0.079,0.104,0.153,0.209,0.248,0.304
					c1.135,1.135,2.974,1.135,4.109,0c0.008-0.008,0.013-0.018,0.021-0.026c0.007-0.007,0.015-0.01,0.022-0.017
					c0.284-0.284,0.497-0.612,0.638-0.961c0.426-1.049,0.213-2.297-0.638-3.148C305.923,229.327,304.676,229.114,303.626,229.54z"/>
				<path fill="#F9F9F9" d="M315.208,217.634L315.208,217.634c-0.008,0.008-0.012,0.017-0.02,0.024
					c-0.007,0.007-0.016,0.012-0.023,0.019c-0.07,0.07-0.119,0.153-0.18,0.229c-0.049,0.063-0.105,0.122-0.148,0.188
					c-0.4,0.586-0.567,1.282-0.491,1.963c0.071,0.631,0.335,1.246,0.82,1.73c0.45,0.45,1.012,0.714,1.597,0.807
					c0.712,0.113,1.452-0.048,2.073-0.464c0.077-0.05,0.146-0.113,0.218-0.17c0.073-0.06,0.153-0.105,0.221-0.173
					c0.007-0.008,0.012-0.016,0.02-0.024c0.007-0.007,0.016-0.012,0.023-0.019l0,0c1.135-1.135,1.134-2.974,0-4.109
					C318.183,216.5,316.343,216.5,315.208,217.634z"/>
			</g>
			<g opacity="0.5">
				<path fill="#F9F9F9" d="M-37.526,137.264c0.007,0.007,0.011,0.016,0.018,0.023c1.135,1.134,2.975,1.135,4.109,0
					c0.007-0.008,0.012-0.017,0.02-0.024c0.007-0.007,0.016-0.012,0.023-0.019c1.135-1.135,1.134-2.974,0-4.109
					c-0.007-0.007-0.017-0.012-0.024-0.02s-0.012-0.016-0.02-0.024c-1.134-1.134-2.974-1.134-4.109,0
					c-0.007,0.008-0.012,0.017-0.02,0.024s-0.016,0.012-0.023,0.019c-1.135,1.135-1.135,2.975,0,4.109
					C-37.543,137.251-37.534,137.256-37.526,137.264z"/>
				<path fill="#F9F9F9" d="M-12.44,137.263c0.007,0.008,0.012,0.017,0.02,0.024c1.134,1.134,2.974,1.134,4.108,0
					c0.008-0.008,0.012-0.017,0.02-0.024s0.017-0.012,0.024-0.02c1.134-1.135,1.134-2.974,0-4.109
					c-0.008-0.007-0.017-0.012-0.024-0.019c-0.007-0.008-0.012-0.017-0.02-0.024c-1.135-1.135-2.974-1.135-4.109,0
					c-0.007,0.007-0.012,0.016-0.02,0.023s-0.016,0.012-0.023,0.02c-1.135,1.135-1.135,2.974,0,4.108
					C-12.457,137.251-12.448,137.255-12.44,137.263z"/>
				<path fill="#F9F9F9" d="M-24.983,124.721c0.007,0.007,0.012,0.016,0.019,0.022c1.135,1.135,2.974,1.135,4.109,0
					c0.007-0.007,0.012-0.016,0.02-0.023c0.007-0.008,0.016-0.012,0.023-0.02c1.135-1.135,1.135-2.975,0-4.109
					c-0.007-0.007-0.016-0.012-0.022-0.019c-0.008-0.008-0.013-0.018-0.021-0.025c-1.135-1.134-2.975-1.134-4.109,0
					c-0.007,0.007-0.012,0.016-0.019,0.023c-0.008,0.007-0.017,0.012-0.024,0.02c-1.134,1.135-1.135,2.975,0,4.109
					C-25,124.708-24.991,124.713-24.983,124.721z"/>
				<path fill="#F9F9F9" d="M-12.441,112.176c0.007,0.008,0.012,0.017,0.02,0.024c1.135,1.135,2.975,1.135,4.109,0
					c0.008-0.008,0.012-0.017,0.02-0.024c0.008-0.007,0.017-0.012,0.024-0.02c1.134-1.134,1.134-2.974,0-4.109
					c-0.007-0.007-0.017-0.012-0.024-0.02s-0.012-0.016-0.02-0.024c-1.135-1.134-2.975-1.134-4.109,0
					c-0.007,0.007-0.012,0.016-0.02,0.024c-0.007,0.007-0.016,0.012-0.024,0.019c-1.134,1.135-1.134,2.974,0,4.109
					C-12.457,112.165-12.448,112.169-12.441,112.176z"/>
				<path fill="#F9F9F9" d="M41.817,133.135c-1.135-1.135-2.975-1.135-4.109,0v0c-1.091,1.091-1.121,2.827-0.115,3.968
					c0.041,0.046,0.071,0.097,0.115,0.141c0,0,0,0,0,0c1.135,1.134,2.975,1.134,4.109,0l0,0
					C42.952,136.109,42.952,134.27,41.817,133.135z"/>
				<path fill="#F9F9F9" d="M12.646,112.177c0.007,0.007,0.012,0.016,0.02,0.024c1.135,1.134,2.974,1.134,4.109,0
					c1.135-1.134,1.135-2.974,0-4.108c-0.007-0.008-0.016-0.013-0.024-0.02c-0.007-0.007-0.012-0.016-0.019-0.023
					c-1.135-1.135-2.975-1.135-4.109,0c-1.135,1.135-1.135,2.974,0,4.109C12.629,112.165,12.638,112.169,12.646,112.177z"/>
				<path fill="#F9F9F9" d="M0.103,99.633c0.007,0.008,0.012,0.017,0.019,0.024c1.135,1.135,2.975,1.135,4.109,0
					c1.134-1.134,1.134-2.974,0-4.109c-0.007-0.007-0.017-0.012-0.024-0.02s-0.012-0.016-0.02-0.024
					c-1.135-1.134-2.975-1.134-4.109,0c-1.135,1.135-1.135,2.974,0,4.108C0.086,99.622,0.095,99.626,0.103,99.633z"/>
				<path fill="#F9F9F9" d="M-45.942,124.744c0.008-0.007,0.012-0.016,0.02-0.024c0.007-0.007,0.017-0.012,0.024-0.02
					c1.134-1.134,1.134-2.974,0-4.109c-1.134-1.134-2.974-1.134-4.109,0c-0.007,0.008-0.012,0.017-0.02,0.024
					s-0.016,0.012-0.023,0.019c-1.135,1.135-1.135,2.975,0,4.109C-48.917,125.878-47.076,125.878-45.942,124.744z"/>
				<path fill="#F9F9F9" d="M-33.398,112.2c0.007-0.007,0.012-0.016,0.02-0.023s0.016-0.012,0.023-0.019
					c1.135-1.135,1.135-2.975,0-4.11c-1.135-1.134-2.975-1.134-4.109,0c-0.007,0.007-0.012,0.016-0.019,0.023
					c-0.008,0.007-0.017,0.012-0.024,0.02c-1.134,1.135-1.135,2.975,0,4.109C-36.374,113.335-34.533,113.335-33.398,112.2z"/>
				<path fill="#F9F9F9" d="M-20.855,99.658c0.007-0.008,0.012-0.017,0.019-0.024c0.008-0.007,0.017-0.012,0.024-0.02
					c1.135-1.135,1.135-2.975,0-4.109c-1.135-1.134-2.975-1.134-4.109,0c-0.007,0.007-0.012,0.016-0.02,0.024
					c-0.007,0.007-0.016,0.012-0.024,0.019c-1.134,1.135-1.134,2.974,0,4.109C-23.83,100.792-21.99,100.792-20.855,99.658z"/>
				<path fill="#F9F9F9" d="M29.293,120.615c-0.007-0.007-0.012-0.016-0.02-0.023c-1.134-1.135-2.974-1.135-4.108,0
					c-1.135,1.135-1.135,2.974,0,4.109c0.007,0.007,0.016,0.012,0.023,0.02c0.007,0.008,0.012,0.016,0.02,0.023c0,0,0,0,0,0
					c1.135,1.134,2.975,1.134,4.109,0l0,0c1.134-1.135,1.134-2.974,0-4.109C29.31,120.627,29.301,120.623,29.293,120.615z"/>
				<circle fill="#F9F9F9" cx="-10.367" cy="85.06" r="2.905"/>
				<path fill="#F9F9F9" d="M-20.836,170.745c-0.007-0.007-0.012-0.016-0.02-0.024c-1.135-1.134-2.974-1.134-4.109,0
					c-1.135,1.135-1.135,2.975,0,4.109c0.007,0.008,0.016,0.012,0.023,0.02c0.008,0.007,0.012,0.017,0.02,0.024
					c0.567,0.568,1.311,0.851,2.055,0.851c0.743,0,1.487-0.284,2.055-0.851c0.61-0.61,0.881-1.423,0.835-2.221
					c-0.04-0.687-0.311-1.363-0.835-1.888C-20.82,170.757-20.829,170.752-20.836,170.745z"/>
				<path fill="#F9F9F9" d="M-33.379,158.202c-0.008-0.007-0.012-0.017-0.02-0.024c-1.134-1.135-2.974-1.135-4.109,0
					s-1.134,2.974,0,4.109c0.008,0.007,0.017,0.012,0.024,0.02c0.007,0.007,0.012,0.016,0.019,0.023
					c1.135,1.135,2.974,1.135,4.109,0c1.135-1.134,1.135-2.974,0-4.109C-33.363,158.213-33.372,158.209-33.379,158.202z"/>
				<path fill="#F9F9F9" d="M-45.922,145.658c-0.007-0.007-0.012-0.017-0.02-0.024c-1.135-1.134-2.974-1.134-4.109,0
					c-1.135,1.135-1.135,2.975,0,4.109c0.008,0.008,0.017,0.013,0.025,0.02c0.007,0.007,0.011,0.016,0.018,0.023
					c1.135,1.134,2.975,1.135,4.109,0c1.135-1.135,1.134-2.975,0-4.109C-45.906,145.67-45.915,145.666-45.922,145.658z"/>
				<circle fill="#F9F9F9" cx="-60.496" cy="135.189" r="2.906"/>
				<path fill="#F9F9F9" d="M-8.293,158.202c-0.007-0.007-0.012-0.016-0.02-0.023c-1.134-1.135-2.974-1.135-4.108,0
					c-0.008,0.007-0.012,0.016-0.02,0.023s-0.017,0.012-0.024,0.019c-1.135,1.135-1.135,2.975,0,4.109
					c0.007,0.008,0.016,0.012,0.023,0.02c0.008,0.007,0.012,0.017,0.02,0.024c0.567,0.568,1.311,0.851,2.055,0.851
					c0.743,0,1.487-0.284,2.055-0.851c0.007-0.007,0.011-0.016,0.018-0.023c0.008-0.008,0.017-0.013,0.025-0.02
					c1.135-1.135,1.135-2.975,0-4.109C-8.276,158.214-8.285,158.209-8.293,158.202z"/>
				<path fill="#F9F9F9" d="M-20.836,145.658c-0.007-0.007-0.012-0.016-0.019-0.023c-1.135-1.135-2.974-1.135-4.109,0
					c-0.007,0.007-0.012,0.016-0.02,0.023s-0.016,0.012-0.024,0.02c-1.135,1.135-1.134,2.974,0,4.109
					c0.008,0.007,0.017,0.012,0.024,0.02c0.007,0.007,0.012,0.016,0.019,0.023c1.135,1.135,2.974,1.135,4.109,0
					c0.007-0.007,0.012-0.016,0.019-0.023c0.008-0.007,0.017-0.012,0.024-0.019c1.135-1.135,1.135-2.975,0-4.109
					C-20.82,145.67-20.829,145.666-20.836,145.658z"/>
				<path fill="#F9F9F9" d="M4.246,145.654c-0.006-0.006-0.01-0.013-0.015-0.019c-0.041-0.041-0.089-0.069-0.131-0.107
					c-0.065-0.056-0.129-0.113-0.198-0.162c-1.138-0.846-2.748-0.764-3.78,0.269c-0.007,0.007-0.012,0.016-0.02,0.023
					c-0.007,0.008-0.016,0.012-0.024,0.02c-1.134,1.134-1.134,2.974,0,4.109c0.008,0.007,0.017,0.012,0.024,0.02
					c0.007,0.007,0.012,0.016,0.02,0.023c1.135,1.135,2.974,1.135,4.109,0c0.008-0.008,0.013-0.018,0.021-0.026
					c0.007-0.007,0.015-0.01,0.022-0.017c0.284-0.284,0.497-0.612,0.638-0.961c0.426-1.049,0.213-2.297-0.638-3.148
					C4.265,145.669,4.255,145.663,4.246,145.654z"/>
				<path fill="#F9F9F9" d="M16.793,133.115c-0.007-0.007-0.012-0.016-0.02-0.023c-1.134-1.135-2.974-1.135-4.108,0
					c-0.008,0.007-0.012,0.016-0.02,0.024c-0.008,0.007-0.017,0.012-0.024,0.019c-1.135,1.135-1.135,2.974,0,4.109
					c0.007,0.007,0.015,0.011,0.022,0.019c0.007,0.008,0.013,0.017,0.021,0.025c0.45,0.45,1.012,0.714,1.597,0.807
					c0.712,0.113,1.452-0.048,2.073-0.464c0.077-0.05,0.146-0.113,0.218-0.17c0.073-0.06,0.153-0.105,0.221-0.173
					c0.007-0.008,0.012-0.016,0.02-0.024c0.007-0.007,0.016-0.012,0.023-0.019l0,0c1.134-1.135,1.134-2.974,0-4.109
					C16.81,133.127,16.801,133.123,16.793,133.115z"/>
				<path fill="#F9F9F9" d="M4.25,120.572c-0.007-0.007-0.012-0.016-0.019-0.023c-1.135-1.135-2.975-1.135-4.109,0
					c-0.007,0.007-0.012,0.016-0.02,0.023s-0.017,0.012-0.024,0.02c-1.135,1.134-1.135,2.974,0,4.108
					c0.007,0.008,0.017,0.012,0.024,0.02c0.007,0.008,0.012,0.017,0.02,0.024c1.134,1.135,2.974,1.135,4.109,0
					c0.007-0.007,0.012-0.016,0.019-0.024c0.008-0.007,0.017-0.012,0.024-0.02c1.135-1.134,1.135-2.974,0-4.108
					C4.267,120.584,4.258,120.579,4.25,120.572z"/>
				<path fill="#F9F9F9" d="M-10.367,182.413c-0.744,0-1.487,0.284-2.055,0.851c-0.525,0.525-0.795,1.201-0.835,1.888
					c-0.046,0.798,0.225,1.611,0.835,2.221c0.567,0.568,1.311,0.851,2.055,0.851c0.743,0,1.487-0.284,2.055-0.851
					c0.61-0.61,0.881-1.423,0.835-2.221c-0.04-0.687-0.311-1.363-0.835-1.888C-8.88,182.697-9.623,182.413-10.367,182.413z"/>
				<path fill="#F9F9F9" d="M3.927,170.473c-1.139-0.867-2.765-0.792-3.805,0.248c-0.007,0.008-0.013,0.017-0.02,0.025
					c-0.007,0.007-0.016,0.011-0.023,0.018c-0.525,0.525-0.795,1.202-0.835,1.888c-0.046,0.798,0.225,1.611,0.835,2.221
					c0.567,0.568,1.311,0.851,2.055,0.851c0.743,0,1.487-0.284,2.055-0.851c0.007-0.007,0.011-0.016,0.018-0.023
					c0.008-0.008,0.017-0.013,0.025-0.02c1.135-1.135,1.135-2.975,0-4.109C4.136,170.626,4.03,170.552,3.927,170.473z"/>
				<path fill="#F9F9F9" d="M13.626,157.54c-0.35,0.142-0.677,0.354-0.961,0.638c-0.007,0.006-0.01,0.015-0.017,0.021
					c-0.008,0.008-0.019,0.013-0.027,0.021c-1.04,1.041-1.115,2.667-0.248,3.805c0.079,0.104,0.153,0.209,0.248,0.304
					c1.135,1.135,2.974,1.135,4.109,0c0.008-0.008,0.013-0.018,0.021-0.026c0.007-0.007,0.015-0.01,0.022-0.017
					c0.284-0.284,0.497-0.612,0.638-0.961c0.426-1.049,0.213-2.297-0.638-3.148C15.923,157.327,14.676,157.114,13.626,157.54z"/>
				<path fill="#F9F9F9" d="M25.208,145.634L25.208,145.634c-0.008,0.008-0.012,0.017-0.02,0.024
					c-0.007,0.007-0.016,0.012-0.023,0.019c-0.07,0.07-0.119,0.153-0.18,0.229c-0.049,0.063-0.105,0.122-0.148,0.188
					c-0.4,0.586-0.567,1.282-0.491,1.963c0.071,0.631,0.335,1.246,0.82,1.73c0.45,0.45,1.012,0.714,1.597,0.807
					c0.712,0.113,1.452-0.048,2.073-0.464c0.077-0.05,0.146-0.113,0.218-0.17c0.073-0.06,0.153-0.105,0.221-0.173
					c0.007-0.008,0.012-0.016,0.02-0.024c0.007-0.007,0.016-0.012,0.023-0.019l0,0c1.134-1.135,1.134-2.974,0-4.109
					C28.183,144.5,26.343,144.5,25.208,145.634z"/>
			</g>
			<g opacity="0.5">
				<path fill="#F9F9F9" d="M752.474,106.264c0.007,0.007,0.012,0.016,0.019,0.023c1.135,1.134,2.975,1.135,4.109,0
					c0.008-0.008,0.012-0.017,0.02-0.024c0.007-0.007,0.017-0.012,0.023-0.019c1.135-1.135,1.135-2.974,0-4.109
					c-0.008-0.007-0.017-0.012-0.023-0.02c-0.008-0.007-0.013-0.016-0.02-0.024c-1.135-1.134-2.975-1.134-4.109,0
					c-0.008,0.008-0.012,0.017-0.02,0.024c-0.007,0.007-0.016,0.012-0.023,0.019c-1.135,1.135-1.135,2.975,0,4.109
					C752.457,106.251,752.466,106.256,752.474,106.264z"/>
				<path fill="#F9F9F9" d="M777.56,106.263c0.007,0.008,0.012,0.017,0.02,0.024c1.135,1.134,2.974,1.134,4.108,0
					c0.008-0.008,0.013-0.017,0.02-0.024c0.008-0.007,0.017-0.012,0.023-0.02c1.135-1.135,1.135-2.974,0-4.109
					c-0.007-0.007-0.016-0.012-0.023-0.019c-0.008-0.008-0.012-0.017-0.02-0.024c-1.135-1.135-2.975-1.135-4.109,0
					c-0.007,0.007-0.012,0.016-0.019,0.023c-0.008,0.007-0.017,0.012-0.024,0.02c-1.135,1.135-1.135,2.974,0,4.108
					C777.543,106.251,777.552,106.255,777.56,106.263z"/>
				<path fill="#F9F9F9" d="M765.018,93.721c0.007,0.007,0.011,0.016,0.018,0.022c1.135,1.135,2.975,1.135,4.109,0
					c0.008-0.007,0.012-0.016,0.02-0.023c0.008-0.008,0.017-0.012,0.023-0.02c1.135-1.135,1.135-2.975,0-4.109
					c-0.007-0.007-0.016-0.012-0.022-0.019c-0.008-0.008-0.013-0.018-0.021-0.025c-1.135-1.134-2.975-1.134-4.109,0
					c-0.007,0.007-0.012,0.016-0.02,0.023c-0.007,0.007-0.016,0.012-0.023,0.02c-1.135,1.135-1.135,2.975,0,4.109
					C765,93.708,765.01,93.713,765.018,93.721z"/>
				<path fill="#F9F9F9" d="M777.56,81.176c0.007,0.008,0.012,0.017,0.019,0.024c1.135,1.135,2.975,1.135,4.109,0
					c0.008-0.008,0.013-0.017,0.02-0.024c0.008-0.007,0.017-0.012,0.024-0.02c1.134-1.134,1.134-2.974-0.001-4.109
					c-0.007-0.007-0.016-0.012-0.023-0.02s-0.012-0.016-0.02-0.024c-1.135-1.134-2.975-1.134-4.109,0
					c-0.007,0.007-0.012,0.016-0.02,0.024c-0.007,0.007-0.016,0.012-0.023,0.019c-1.135,1.135-1.135,2.974,0,4.109
					C777.543,81.165,777.552,81.169,777.56,81.176z"/>
				<path fill="#F9F9F9" d="M831.817,102.135c-1.135-1.135-2.975-1.135-4.109,0v0c-1.091,1.091-1.121,2.827-0.115,3.968
					c0.041,0.046,0.071,0.097,0.115,0.141c0,0,0,0,0,0c1.135,1.134,2.975,1.134,4.109,0v0
					C832.952,105.109,832.952,103.27,831.817,102.135z"/>
				<path fill="#F9F9F9" d="M802.646,81.177c0.008,0.007,0.012,0.016,0.02,0.024c1.135,1.134,2.974,1.134,4.109,0
					c1.134-1.134,1.135-2.974,0-4.108c-0.008-0.008-0.017-0.013-0.024-0.02c-0.007-0.007-0.012-0.016-0.02-0.023
					c-1.135-1.135-2.975-1.135-4.108,0c-1.135,1.135-1.135,2.974,0,4.109C802.629,81.165,802.638,81.169,802.646,81.177z"/>
				<path fill="#F9F9F9" d="M790.103,68.633c0.007,0.008,0.012,0.017,0.02,0.024c1.134,1.135,2.974,1.135,4.109,0
					c1.134-1.134,1.134-2.974-0.001-4.109c-0.007-0.007-0.016-0.012-0.023-0.02s-0.012-0.016-0.02-0.024
					c-1.135-1.134-2.975-1.134-4.109,0s-1.135,2.974,0,4.108C790.086,68.622,790.095,68.626,790.103,68.633z"/>
				<path fill="#F9F9F9" d="M744.059,93.744c0.007-0.007,0.012-0.016,0.02-0.024c0.007-0.007,0.016-0.012,0.023-0.02
					c1.135-1.134,1.134-2.974,0-4.109c-1.135-1.134-2.975-1.134-4.109,0c-0.008,0.008-0.012,0.017-0.02,0.024
					c-0.007,0.007-0.016,0.012-0.023,0.019c-1.135,1.135-1.135,2.975,0,4.109S742.924,94.878,744.059,93.744z"/>
				<path fill="#F9F9F9" d="M756.602,81.2c0.008-0.007,0.012-0.016,0.02-0.023c0.007-0.007,0.016-0.012,0.023-0.019
					c1.135-1.135,1.135-2.975,0-4.11c-1.135-1.134-2.975-1.134-4.109,0c-0.007,0.007-0.012,0.016-0.02,0.023
					c-0.007,0.007-0.016,0.012-0.023,0.02c-1.135,1.135-1.135,2.975,0,4.109C753.627,82.335,755.467,82.335,756.602,81.2z"/>
				<path fill="#F9F9F9" d="M769.145,68.658c0.008-0.008,0.012-0.017,0.02-0.024c0.007-0.007,0.016-0.012,0.023-0.02
					c1.135-1.135,1.135-2.975,0-4.109c-1.135-1.134-2.975-1.134-4.109,0c-0.007,0.007-0.012,0.016-0.02,0.024
					c-0.007,0.007-0.016,0.012-0.023,0.019c-1.135,1.135-1.135,2.974,0,4.109C766.17,69.792,768.01,69.792,769.145,68.658z"/>
				<path fill="#F9F9F9" d="M819.293,89.615c-0.007-0.007-0.012-0.016-0.019-0.023c-1.135-1.135-2.975-1.135-4.109,0
					s-1.135,2.974,0,4.109c0.007,0.007,0.017,0.012,0.023,0.02s0.013,0.016,0.02,0.023c0,0,0,0,0,0c1.135,1.134,2.975,1.134,4.109,0
					v0c1.135-1.135,1.135-2.974,0-4.109C819.31,89.627,819.301,89.623,819.293,89.615z"/>
				<circle fill="#F9F9F9" cx="779.633" cy="54.06" r="2.906"/>
				<path fill="#F9F9F9" d="M769.164,139.745c-0.008-0.007-0.012-0.016-0.02-0.024c-1.135-1.134-2.975-1.134-4.108,0
					c-1.135,1.135-1.135,2.975,0,4.109c0.007,0.008,0.016,0.012,0.023,0.02c0.007,0.007,0.012,0.017,0.019,0.024
					c0.568,0.568,1.312,0.851,2.055,0.851c0.744,0,1.487-0.284,2.055-0.851c0.61-0.61,0.881-1.423,0.835-2.221
					c-0.039-0.687-0.31-1.363-0.835-1.888C769.181,139.757,769.172,139.752,769.164,139.745z"/>
				<path fill="#F9F9F9" d="M756.621,127.202c-0.008-0.007-0.013-0.017-0.02-0.024c-1.135-1.135-2.975-1.135-4.109,0
					s-1.135,2.974,0,4.109c0.008,0.007,0.017,0.012,0.024,0.02c0.007,0.007,0.012,0.016,0.02,0.023c1.134,1.135,2.974,1.135,4.108,0
					c1.135-1.134,1.135-2.974,0-4.109C756.637,127.213,756.628,127.209,756.621,127.202z"/>
				<path fill="#F9F9F9" d="M744.077,114.658c-0.007-0.007-0.012-0.017-0.019-0.024c-1.135-1.134-2.975-1.134-4.109,0
					c-1.135,1.135-1.135,2.975,0,4.109c0.008,0.008,0.017,0.013,0.024,0.02c0.007,0.007,0.012,0.016,0.019,0.023
					c1.135,1.134,2.975,1.135,4.109,0c1.135-1.135,1.135-2.975,0-4.109C744.094,114.67,744.085,114.666,744.077,114.658z"/>
				<circle fill="#F9F9F9" cx="729.504" cy="104.189" r="2.906"/>
				<path fill="#F9F9F9" d="M781.707,127.202c-0.007-0.007-0.012-0.017-0.02-0.023c-1.135-1.135-2.974-1.135-4.108,0
					c-0.008,0.007-0.013,0.016-0.02,0.023c-0.008,0.007-0.017,0.012-0.023,0.019c-1.135,1.135-1.135,2.975,0,4.109
					c0.007,0.008,0.016,0.012,0.023,0.02c0.007,0.007,0.012,0.017,0.019,0.024c0.568,0.568,1.312,0.851,2.055,0.851
					c0.744,0,1.487-0.284,2.055-0.851c0.008-0.007,0.012-0.016,0.019-0.023c0.008-0.008,0.018-0.013,0.024-0.02
					c1.135-1.135,1.135-2.975,0-4.109C781.724,127.214,781.715,127.209,781.707,127.202z"/>
				<path fill="#F9F9F9" d="M769.164,114.658c-0.008-0.007-0.013-0.016-0.02-0.023c-1.135-1.135-2.975-1.135-4.109,0
					c-0.007,0.007-0.012,0.016-0.019,0.023c-0.008,0.007-0.017,0.012-0.024,0.02c-1.135,1.135-1.135,2.974,0,4.109
					c0.008,0.007,0.017,0.012,0.024,0.02c0.007,0.007,0.012,0.016,0.02,0.023c1.134,1.135,2.974,1.135,4.108,0
					c0.008-0.007,0.012-0.016,0.02-0.023c0.007-0.007,0.016-0.012,0.023-0.019c1.135-1.135,1.135-2.975,0-4.109
					C769.18,114.67,769.171,114.666,769.164,114.658z"/>
				<path fill="#F9F9F9" d="M794.246,114.654c-0.006-0.006-0.01-0.013-0.016-0.019c-0.041-0.041-0.088-0.069-0.131-0.107
					c-0.065-0.056-0.129-0.113-0.197-0.162c-1.138-0.846-2.748-0.764-3.78,0.269c-0.008,0.007-0.013,0.016-0.02,0.023
					c-0.008,0.008-0.017,0.012-0.023,0.02c-1.135,1.134-1.135,2.974,0,4.109c0.007,0.007,0.017,0.012,0.023,0.02
					c0.007,0.007,0.012,0.016,0.02,0.023c1.135,1.135,2.975,1.135,4.108,0c0.009-0.008,0.014-0.018,0.021-0.026
					c0.007-0.007,0.016-0.011,0.022-0.017c0.283-0.284,0.496-0.612,0.638-0.961c0.426-1.049,0.213-2.297-0.638-3.148
					C794.266,114.669,794.255,114.663,794.246,114.654z"/>
				<path fill="#F9F9F9" d="M806.793,102.115c-0.007-0.007-0.012-0.016-0.019-0.023c-1.135-1.135-2.975-1.135-4.109,0
					c-0.007,0.007-0.012,0.016-0.02,0.024c-0.007,0.007-0.017,0.012-0.023,0.019c-1.135,1.135-1.135,2.974,0,4.109
					c0.007,0.007,0.016,0.011,0.022,0.019c0.008,0.008,0.013,0.017,0.021,0.025c0.45,0.45,1.013,0.714,1.597,0.807
					c0.713,0.113,1.452-0.048,2.072-0.464c0.077-0.05,0.146-0.113,0.219-0.17c0.072-0.06,0.153-0.105,0.222-0.173
					c0.007-0.008,0.012-0.016,0.019-0.024c0.008-0.007,0.017-0.012,0.024-0.019v0c1.135-1.135,1.135-2.974,0-4.109
					C806.81,102.127,806.801,102.123,806.793,102.115z"/>
				<path fill="#F9F9F9" d="M794.25,89.572c-0.007-0.007-0.012-0.016-0.02-0.023c-1.135-1.135-2.975-1.135-4.108,0
					c-0.008,0.007-0.013,0.016-0.02,0.023c-0.008,0.007-0.017,0.012-0.024,0.02c-1.134,1.134-1.134,2.974,0,4.108
					c0.008,0.008,0.017,0.012,0.024,0.02c0.007,0.008,0.012,0.017,0.02,0.024c1.135,1.135,2.974,1.135,4.108,0
					c0.008-0.007,0.013-0.016,0.02-0.024c0.008-0.007,0.017-0.012,0.024-0.02c1.134-1.134,1.135-2.974,0-4.108
					C794.267,89.584,794.258,89.579,794.25,89.572z"/>
				<path fill="#F9F9F9" d="M779.633,151.413c-0.743,0-1.487,0.284-2.054,0.851c-0.525,0.525-0.796,1.202-0.836,1.888
					c-0.046,0.798,0.226,1.611,0.835,2.221c0.568,0.568,1.312,0.851,2.055,0.851c0.744,0,1.487-0.284,2.055-0.851
					c0.61-0.61,0.881-1.423,0.835-2.221c-0.039-0.687-0.31-1.363-0.835-1.888C781.12,151.697,780.377,151.413,779.633,151.413z"/>
				<path fill="#F9F9F9" d="M793.927,139.473c-1.139-0.867-2.765-0.792-3.805,0.248c-0.008,0.008-0.013,0.017-0.021,0.025
					c-0.007,0.007-0.016,0.011-0.022,0.018c-0.525,0.525-0.796,1.202-0.836,1.888c-0.046,0.798,0.226,1.611,0.835,2.221
					c0.568,0.568,1.312,0.851,2.055,0.851c0.744,0,1.487-0.284,2.055-0.851c0.008-0.007,0.012-0.016,0.019-0.023
					c0.008-0.008,0.018-0.013,0.024-0.02c1.135-1.135,1.135-2.975,0-4.109C794.137,139.626,794.03,139.552,793.927,139.473z"/>
				<path fill="#F9F9F9" d="M803.626,126.54c-0.35,0.142-0.678,0.354-0.961,0.638c-0.007,0.006-0.011,0.015-0.017,0.021
					c-0.009,0.008-0.019,0.013-0.026,0.021c-1.04,1.041-1.115,2.667-0.248,3.805c0.079,0.104,0.153,0.209,0.248,0.304
					c1.135,1.135,2.975,1.135,4.108,0c0.009-0.008,0.014-0.018,0.021-0.026c0.007-0.007,0.016-0.01,0.022-0.017
					c0.283-0.284,0.496-0.612,0.638-0.961c0.426-1.049,0.213-2.297-0.638-3.148C805.923,126.327,804.676,126.114,803.626,126.54z"/>
				<path fill="#F9F9F9" d="M815.208,114.634L815.208,114.634c-0.008,0.008-0.013,0.017-0.02,0.024
					c-0.008,0.007-0.017,0.012-0.023,0.019c-0.07,0.07-0.119,0.153-0.181,0.229c-0.049,0.063-0.104,0.122-0.147,0.188
					c-0.4,0.586-0.568,1.282-0.491,1.963c0.07,0.631,0.335,1.246,0.819,1.73c0.45,0.45,1.013,0.714,1.597,0.807
					c0.713,0.113,1.452-0.048,2.072-0.464c0.077-0.05,0.146-0.113,0.219-0.17c0.072-0.06,0.153-0.105,0.222-0.173
					c0.007-0.008,0.012-0.016,0.019-0.024c0.008-0.007,0.017-0.012,0.024-0.019v0c1.135-1.135,1.135-2.974,0-4.109
					S816.343,113.5,815.208,114.634z"/>
			</g>
		</g>
	</g>
</g>
</svg>
