<?xml version="1.0" encoding="utf-8"?>
<!-- Generator: Adobe Illustrator 16.0.0, SVG Export Plug-In . SVG Version: 6.00 Build 0)  -->
<!DOCTYPE svg PUBLIC "-//W3C//DTD SVG 1.1//EN" "http://www.w3.org/Graphics/SVG/1.1/DTD/svg11.dtd">
<svg version="1.1" id="Calque_1" xmlns="http://www.w3.org/2000/svg" xmlns:xlink="http://www.w3.org/1999/xlink" x="0px" y="0px"
	 width="1185.637px" height="1185px" viewBox="6.783 10.5 1185.637 1185" enable-background="new 6.783 10.5 1185.637 1185"
	 xml:space="preserve">
<image overflow="visible" enable-background="new    " width="5000" height="5000" xlink:href="bg3.jpg"  transform="matrix(0.24 0 0 0.24 1.8408 0)">
</image>
<rect x="2.609" y="49.604" width="105.811" height="81.896"/>
<rect y="44" fill="#FFFFFF" width="105.811" height="81.896"/>
<rect x="1072.745" y="765.928" transform="matrix(0.3093 -0.951 0.951 0.3093 -5.1642 1661.1205)" width="136.375" height="136.375"/>
<rect x="1084.063" y="761.311" transform="matrix(0.3093 -0.951 0.951 0.3093 7.0474 1668.6998)" fill="#FFFFFF" width="136.374" height="136.375"/>
<rect x="102.048" y="458.989" transform="matrix(-0.4344 -0.9007 0.9007 -0.4344 -251.0272 844.4695)" width="75.15" height="84.121"/>
<rect x="105.334" y="452.525" transform="matrix(-0.4343 -0.9008 0.9008 -0.4343 -240.5229 838.1181)" fill="#FFFFFF" width="75.145" height="84.115"/>
<rect x="1060.443" y="387.055" transform="matrix(-0.4344 -0.9007 0.9007 -0.4344 1188.5082 1604.5266)" width="75.15" height="84.119"/>
<rect x="1063.663" y="380.593" transform="matrix(-0.4343 -0.9008 0.9008 -0.4343 1198.8146 1598.1646)" fill="#FFFFFF" width="75.145" height="84.116"/>
<rect x="957.316" y="1116.667" transform="matrix(0.862 0.507 -0.507 0.862 728.6197 -351.0867)" width="103.421" height="91.574"/>
<rect x="959.387" y="1125.226" transform="matrix(0.8619 0.507 -0.507 0.8619 733.3318 -350.969)" fill="#FFFFFF" width="103.408" height="91.566"/>
<rect x="180.598" y="1139.887" transform="matrix(-0.4344 -0.9007 0.9007 -0.4344 -759.3918 1847.6812)" width="39.63" height="44.753"/>
<rect x="182.252" y="1136.436" transform="matrix(-0.4343 -0.9008 0.9008 -0.4343 -754.0065 1844.0867)" fill="#FFFFFF" width="39.633" height="44.754"/>
<rect x="25.464" y="273.292" transform="matrix(-0.1606 0.987 -0.987 -0.1606 344.3817 298.4654)" width="39.631" height="44.753"/>
<rect x="22.073" y="275.06" transform="matrix(-0.1606 0.987 -0.987 -0.1606 342.1903 303.8617)" fill="#FFFFFF" width="39.63" height="44.753"/>
<rect x="1122.813" y="685.292" transform="matrix(-0.1606 0.987 -0.987 -0.1606 2024.6312 -306.4644)" width="39.631" height="44.753"/>
<rect x="1119.423" y="687.06" transform="matrix(-0.1606 0.987 -0.987 -0.1606 2022.4205 -301.0837)" fill="#FFFFFF" width="39.63" height="44.754"/>
<rect x="1084.687" y="667.261" transform="matrix(-0.3414 0.9399 -0.9399 -0.3414 2107.8628 -118.288)" width="21.372" height="24.134"/>
<rect x="1082.713" y="667.857" transform="matrix(-0.3414 0.9399 -0.9399 -0.3414 2105.7998 -115.6011)" fill="#FFFFFF" width="21.37" height="24.135"/>
<rect x="1102.243" y="640.5" transform="matrix(0.1012 0.9949 -0.9949 0.1012 1642.3625 -520.7538)" width="14.283" height="16.129"/>
<rect x="1101.229" y="641.433" transform="matrix(0.1011 0.9949 -0.9949 0.1011 1642.45 -518.8726)" fill="#FFFFFF" width="14.282" height="16.129"/>
<rect x="137.437" y="560.969" transform="matrix(-0.3518 -0.9361 0.9361 -0.3518 -335.2296 921.2656)" width="27.874" height="31.475"/>
<rect x="138.889" y="558.703" transform="matrix(-0.3517 -0.9361 0.9361 -0.3517 -331.1567 919.5483)" fill="#FFFFFF" width="27.873" height="31.475"/>
<rect x="43.185" y="716.292" transform="matrix(-0.1606 0.987 -0.987 -0.1606 802.1978 795.1262)" width="39.631" height="44.753"/>
<rect x="39.794" y="718.06" transform="matrix(-0.1606 0.987 -0.987 -0.1606 800.0071 800.5197)" fill="#FFFFFF" width="39.63" height="44.753"/>
<rect x="115.413" y="852.292" transform="matrix(-0.1606 0.987 -0.987 -0.1606 1020.2604 881.6797)" width="39.631" height="44.753"/>
<rect x="112.022" y="854.06" transform="matrix(-0.1606 0.987 -0.987 -0.1606 1018.0693 887.0721)" fill="#FFFFFF" width="39.63" height="44.753"/>
<rect x="40.914" y="525.941" transform="matrix(-0.364 -0.9314 0.9314 -0.364 -427.8755 804.454)" width="39.63" height="44.753"/>
<rect x="42.935" y="522.693" transform="matrix(-0.3639 -0.9314 0.9314 -0.3639 -422.1015 801.8929)" fill="#FFFFFF" width="39.629" height="44.753"/>
<rect x="79.144" y="595.258" transform="matrix(-0.3545 -0.9351 0.9351 -0.3545 -446.1014 907.5787)" width="22.17" height="25.035"/>
<rect x="80.292" y="593.452" transform="matrix(-0.3545 -0.9351 0.9351 -0.3545 -442.8455 906.2286)" fill="#FFFFFF" width="22.17" height="25.035"/>
<rect x="114.859" y="209.891" transform="matrix(-0.5942 -0.8043 0.8043 -0.5942 27.8797 478.6009)" width="39.631" height="44.752"/>
<rect x="115.963" y="206.229" transform="matrix(-0.5942 -0.8043 0.8043 -0.5942 32.5837 473.6501)" fill="#FFFFFF" width="39.63" height="44.753"/>
<polygon points="1146.744,-8.512 1181.92,64.17 1100.276,103.408 1065.098,30.727 "/>
<polygon fill="#FFFFFF" points="1150.251,-15.408 1185.42,57.272 1103.777,96.502 1068.608,23.82 "/>
<rect x="-16.672" y="945.764" transform="matrix(-0.6325 0.7745 -0.7745 -0.6325 933.9722 1638.4076)" width="189.992" height="189.992"/>
<rect x="-33.691" y="946.053" transform="matrix(-0.6325 0.7745 -0.7745 -0.6325 906.4127 1652.0588)" fill="#FFFFFF" width="189.991" height="189.991"/>
</svg>
