<?xml version="1.0" encoding="utf-8"?>
<!-- Generator: Adobe Illustrator 16.0.0, SVG Export Plug-In . SVG Version: 6.00 Build 0)  -->
<!DOCTYPE svg PUBLIC "-//W3C//DTD SVG 1.1//EN" "http://www.w3.org/Graphics/SVG/1.1/DTD/svg11.dtd">
<svg version="1.1" id="Capa_1" xmlns="http://www.w3.org/2000/svg" xmlns:xlink="http://www.w3.org/1999/xlink" x="0px" y="0px"
	 width="512px" height="512px" viewBox="0 0 512 512" enable-background="new 0 0 512 512" xml:space="preserve">
<g>
	<path fill="#FFFFFF" d="M236,330c-8.284,0-15,6.716-15,15v20c0,8.284,6.716,15,15,15s15-6.716,15-15v-20
		C251,336.716,244.284,330,236,330z"/>
	<path fill="#FFFFFF" d="M91,85V65c0-8.284-6.716-15-15-15s-15,6.716-15,15v20c0,8.284,6.716,15,15,15S91,93.284,91,85z"/>
	<path fill="#FFFFFF" d="M436,412c-8.284,0-15,6.716-15,15v20c0,8.284,6.716,15,15,15s15-6.716,15-15v-20
		C451,418.716,444.284,412,436,412z"/>
	<path fill="#FFFFFF" d="M456,82H301V45c0-24.813-20.188-45-45-45H56C31.187,0,11,20.187,11,45v340c0,24.813,20.187,45,45,45h155v37
		c0,24.813,20.187,45,45,45h200c24.813,0,45-20.188,45-45V127C501,102.187,480.813,82,456,82z M56,400c-8.271,0-15-6.729-15-15V45
		c0-8.271,6.729-15,15-15h200c8.271,0,15,6.729,15,15v340c0,8.271-6.729,15-15,15H56z M471,467c0,8.271-6.729,15-15,15H256
		c-8.271,0-15-6.729-15-15v-37h15c24.813,0,45-20.188,45-45v-44.658c7.207,3.45,15.035,5.188,22.868,5.188
		c5.796,0,11.59-0.95,17.132-2.839V372h-15c-8.284,0-15,6.716-15,15s6.716,15,15,15h60c8.284,0,15-6.716,15-15s-6.716-15-15-15h-15
		v-29.311c5.542,1.889,11.336,2.839,17.132,2.839c13.537-0.002,27.078-5.154,37.384-15.46c9.985-9.985,15.484-23.263,15.484-37.383
		c0-14.121-5.499-27.397-15.484-37.383l-58.908-58.909c-5.857-5.857-15.355-5.857-21.213,0L301,240.787V112h155
		c8.271,0,15,6.729,15,15V467z M307.697,276.516L356,228.213l48.303,48.303c4.319,4.319,6.697,10.063,6.697,16.17
		s-2.379,11.852-6.697,16.171c-8.916,8.916-23.425,8.916-32.341,0l-5.354-5.355c-2.93-2.929-6.769-4.394-10.606-4.394
		s-7.678,1.465-10.606,4.394l-5.354,5.355c-8.916,8.917-23.425,8.915-32.341,0C298.781,299.939,298.781,285.432,307.697,276.516
		L307.697,276.516z"/>
	<path fill="#FFFFFF" d="M241,196.092c0-14.122-5.499-27.398-15.485-37.384c-18.943-18.943-48.802-20.48-69.515-4.604
		c-20.711-15.873-50.572-14.339-69.515,4.604C76.499,168.693,71,181.97,71,196.092c0,14.121,5.499,27.397,15.485,37.383
		l58.909,58.908c2.929,2.93,6.768,4.395,10.606,4.395s7.678-1.465,10.606-4.395l58.909-58.908
		C235.501,223.489,241,210.213,241,196.092z M204.302,212.262L156,260.563l-48.302-48.302c-4.319-4.319-6.698-10.063-6.698-16.17
		c0-6.108,2.378-11.852,6.698-16.171c4.458-4.458,10.313-6.687,16.17-6.687c5.855,0,11.712,2.229,16.17,6.687l5.355,5.355
		c5.857,5.857,15.355,5.857,21.213,0l5.355-5.355c8.916-8.916,23.424-8.916,32.34,0c4.319,4.319,6.698,10.063,6.698,16.171
		C211,202.199,208.622,207.942,204.302,212.262L204.302,212.262z"/>
</g>
</svg>
