<?xml version="1.0" encoding="utf-8"?>
<!-- Generator: Adobe Illustrator 16.0.0, SVG Export Plug-In . SVG Version: 6.00 Build 0)  -->
<!DOCTYPE svg PUBLIC "-//W3C//DTD SVG 1.1//EN" "http://www.w3.org/Graphics/SVG/1.1/DTD/svg11.dtd">
<svg version="1.1" id="Calque_1" xmlns="http://www.w3.org/2000/svg" xmlns:xlink="http://www.w3.org/1999/xlink" x="0px" y="0px"
	 width="2560px" height="2000px" viewBox="0 0 2560 2000" enable-background="new 0 0 2560 2000" xml:space="preserve">
<linearGradient id="SVGID_1_" gradientUnits="userSpaceOnUse" x1="1279.5005" y1="2000.5" x2="1279.5004" y2="0.5005">
	<stop  offset="0" style="stop-color:#3300CC"/>
	<stop  offset="0.9944" style="stop-color:#5B02AC"/>
</linearGradient>
<rect x="-0.5" y="0.5" fill="url(#SVGID_1_)" stroke="#000000" stroke-miterlimit="10" width="2560" height="2000"/>
<g>
	<g>
		<g>
			<path fill="#FFBD39" d="M38.895,1467.714c-11.733-3.74-23.732-4.646-40.863-4.956l-49.271-0.09
				c-25.26-0.019-47.654,16.967-55.699,42.197c-9.567,30.006,5.966,62.904,33.938,71.822c5.626,1.795,11.956,2.559,15.934,2.797
				l-66.037,207.113c-10.598,33.238,5.751,68.25,36.437,78.035c30.687,9.783,64.269-9.308,74.867-42.547l88.002-276.004
				C86.801,1512.787,70.483,1477.786,38.895,1467.714z"/>
			<path fill="#FFBD39" d="M283.832,1755.194l-47.787-15.237l2.624-1.075c72.06-29.541,117.429-52.518,139.822-122.752
				c24.573-77.068-11.257-145.508-89.119-170.334c-50.212-16.009-92.712-9.704-138.02,20.596
				c-11.784,8.079-21.022,20.567-25.37,34.202c-10.072,31.588,5.499,64.892,34.669,74.192c15.14,4.827,31.583,2.747,44.949-5.634
				c22.265-13.805,31.962-14.552,43.005-11.03c18.96,6.044,17.241,19.001,14.314,28.183c-5.155,16.168-15.628,26.595-67.381,49.39
				l-115.198,51.078c-21.759,9.431-36.898,25.808-43.755,47.313c-11.031,34.599,5.45,66.563,40.069,77.601l171.727,54.754
				c28.425,9.063,59.491-8.488,69.228-39.024C327.393,1796.728,312.243,1764.253,283.832,1755.194z"/>
			<path fill="#FFBD39" d="M617.421,1620.987l46.746-25.178c19.18-10.366,37.156-22.055,46.067-50.005
				c10.414-32.66-5.805-63.903-38.625-74.367l-154.077-49.126c-28.207-8.994-59.079,8.545-68.82,39.097
				c-9.726,30.502,5.297,62.674,33.504,71.668l45.941,14.648l-34.146,19.567c-13.246,7.539-29.334,18.947-36.175,40.403
				c-9.73,30.519,5.308,62.697,33.498,71.686l10.863,3.464c12.225,3.898,39.923,14.921,33.706,34.422
				c-5.318,16.678-22.291,13.289-29.323,11.047c-18.52-5.905-31.005-16.479-41.821-35.437
				c-7.808-13.313-17.931-21.861-31.148-26.074c-29.666-9.459-63.358,9.654-73.604,41.786c-5.242,16.441-3.337,35.853,4.937,50.572
				c22.369,39.834,57.571,67.616,104.503,82.579c79.581,25.374,152.902-12.495,178.586-93.049
				C664.227,1697.908,653.346,1653.72,617.421,1620.987z"/>
		</g>
	</g>
	<g>
	</g>
	<g>
	</g>
	<g>
	</g>
	<g>
	</g>
	<g>
	</g>
	<g>
	</g>
	<g>
	</g>
	<g>
	</g>
	<g>
	</g>
	<g>
	</g>
	<g>
	</g>
	<g>
	</g>
	<g>
	</g>
	<g>
	</g>
	<g>
	</g>
</g>
<g>
	<g>
		<g>
			<path fill="#FFBD39" d="M2032.813,1242.371c9.562-6.375,17.211-14.596,27.417-26.906l28.767-35.872
				c14.728-18.406,15.389-44.628,1.679-65.191c-16.305-24.454-49.34-32.293-72.136-17.093c-4.587,3.058-8.829,7.227-11.321,9.988
				l-112.542-168.794c-18.061-27.089-53.111-35.564-78.121-18.89c-25.008,16.675-30.651,52.282-12.59,79.371l149.977,224.94
				C1972.045,1251.044,2007.069,1259.535,2032.813,1242.371z"/>
			<path fill="#FFBD39" d="M1680.528,1253.497l38.947-25.966l-0.745,2.54c-20.436,69.747-30.113,116.211,8.053,173.449
				c41.877,62.811,112.648,76.554,176.104,34.244c40.922-27.284,61.082-61.944,65.382-112.629
				c0.975-13.298-2.749-27.309-10.158-38.421c-17.164-25.744-50.517-33.791-74.29-17.94c-12.339,8.227-20.399,21.426-22.075,36.054
				c-2.905,24.276-8.01,31.782-17.009,37.782c-15.451,10.303-23.897,1.502-28.887-5.981c-8.785-13.176-10.287-26.886,3.24-77.898
				l29.862-113.746c5.799-21.357,2.677-41.936-9.009-59.463c-18.801-28.197-51.707-34.799-79.921-15.988l-139.954,93.313
				c-23.165,15.446-28.465,48.32-11.873,73.207C1624.872,1261.064,1657.375,1268.936,1680.528,1253.497z"/>
			<path fill="#FFBD39" d="M1584.061,1574.899l-8.871,48.749c-3.615,20.022-5.563,39.938,9.623,62.717
				c17.747,26.618,49.975,32.992,76.722,15.157l125.57-83.722c22.988-15.327,28.185-48.054,11.582-72.952
				c-16.574-24.858-48.781-32.646-71.771-17.319l-37.441,24.963l5.625-36.295c2.218-14.049,3.271-32.425-8.388-49.91
				c-16.584-24.872-48.805-32.652-71.779-17.335l-8.854,5.903c-9.964,6.643-34.135,20.418-44.731,4.524
				c-9.062-13.592,3.296-23.994,9.026-27.815c15.094-10.063,30.077-13.006,50.199-9.85c14.256,2.063,26.384-0.339,37.154-7.522
				c24.179-16.119,29.868-51.817,12.409-78.006c-8.935-13.399-24.197-23.317-39.749-25.859
				c-42.074-6.894-82.837,2.589-121.085,28.092c-64.856,43.242-79.956,118.761-36.186,184.411
				C1500.713,1564.218,1539.269,1582.024,1584.061,1574.899z"/>
		</g>
	</g>
	<g>
	</g>
	<g>
	</g>
	<g>
	</g>
	<g>
	</g>
	<g>
	</g>
	<g>
	</g>
	<g>
	</g>
	<g>
	</g>
	<g>
	</g>
	<g>
	</g>
	<g>
	</g>
	<g>
	</g>
	<g>
	</g>
	<g>
	</g>
	<g>
	</g>
</g>
<g>
	<g>
		<path fill="#FFBE3B" d="M2478.37,947.388c-6.725,4.838-8.254,14.212-3.416,20.937l11.681,16.235
			c4.838,6.724,14.212,8.254,20.937,3.416c6.725-4.838,8.254-14.212,3.416-20.936l-11.681-16.235
			C2494.469,944.08,2485.095,942.55,2478.37,947.388z"/>
		<path fill="#FFBE3B" d="M2217.583,833.195l-11.68-16.235c-4.839-6.725-14.212-8.254-20.937-3.416
			c-6.725,4.838-8.254,14.211-3.416,20.936l11.681,16.235c4.837,6.724,14.211,8.254,20.936,3.416
			C2220.892,849.293,2222.421,839.919,2217.583,833.195z"/>
		<path fill="#FFBE3B" d="M2688.608,897.147c-6.725,4.838-8.254,14.212-3.416,20.937l11.68,16.235
			c4.838,6.724,14.213,8.254,20.938,3.416c6.725-4.838,8.253-14.212,3.415-20.937l-11.681-16.235
			C2704.706,893.838,2695.333,892.309,2688.608,897.147z"/>
		<path fill="#FFBE3B" d="M2512.116,617.593l-125.819,90.523l-21.608-30.035c-14.492-20.142-42.668-24.738-62.81-10.247
			L2139.53,784.638c-20.141,14.491-24.738,42.667-10.247,62.809l198.567,275.992c14.49,20.141,42.667,24.738,62.809,10.247
			l125.819-90.523l21.609,30.035c14.491,20.142,42.668,24.739,62.81,10.248l162.348-116.804
			c20.141-14.491,24.738-42.668,10.247-62.809L2574.925,627.84C2560.434,607.698,2532.258,603.102,2512.116,617.593z
			 M2373.139,1109.334c-6.714,4.83-16.106,3.298-20.937-3.416l-198.566-275.992c-4.831-6.714-3.299-16.106,3.416-20.937
			l162.348-116.804c6.714-4.831,16.105-3.298,20.937,3.416l198.566,275.992c4.83,6.713,3.298,16.106-3.416,20.937L2373.139,1109.334
			z M2749.14,921.353c4.83,6.713,3.299,16.105-3.416,20.937l-162.348,116.804c-6.714,4.831-16.106,3.297-20.936-3.416
			l-21.609-30.034l12.176-8.761c20.142-14.491,24.738-42.668,10.248-62.809l-26.082-36.251c7.865-1.409,15.234-4.571,21.592-9.145
			c4.705-3.385,8.854-7.54,12.249-12.31l17.118,23.792l-12.176,8.76c-6.725,4.838-8.254,14.212-3.416,20.937
			c4.838,6.724,14.212,8.254,20.937,3.416l48.704-35.042c6.725-4.838,8.254-14.212,3.416-20.936
			c-4.838-6.725-14.212-8.254-20.937-3.416l-12.177,8.76l-17.118-23.793c5.603-1.704,10.86-4.316,15.565-7.701
			c10.986-7.907,18.97-19.998,21.316-34.382c2.273-13.937-1.016-27.925-9.263-39.388s-20.465-19.028-34.401-21.302l-82.223-13.416
			c-8.176-1.334-15.886,4.213-17.22,12.389l-10.11,61.963l-75.213-104.541l125.819-90.523c6.714-4.831,16.106-3.298,20.937,3.416
			L2749.14,921.353z M2505.334,862.101l10.999-67.419l67.42,10.999c6.027,0.983,11.313,4.256,14.879,9.215
			c3.567,4.958,4.99,11.009,4.007,17.038c-2.03,12.444-13.807,20.917-26.251,18.887l-7.475-1.22
			c-4.089-0.667-8.061,0.386-11.176,2.628c-3.115,2.241-5.377,5.673-6.044,9.761l-1.219,7.474
			c-2.029,12.446-13.808,20.917-26.252,18.888C2511.776,886.321,2503.304,874.545,2505.334,862.101z"/>
		<path fill="#FFBE3B" d="M2404.224,835.77c-8.247-11.463-20.465-19.029-34.402-21.304c-26.439-4.313-51.575,11.878-59.117,36.862
			c-26.082-0.789-49.426,17.896-53.74,44.335c-2.273,13.937,1.017,27.926,9.265,39.39c8.247,11.463,20.464,19.027,34.401,21.302
			l82.223,13.414c4.088,0.667,8.061-0.386,11.176-2.627c3.115-2.242,5.377-5.673,6.043-9.76l13.416-82.223
			C2415.761,861.22,2412.471,847.232,2404.224,835.77z M2383.878,870.328l-11,67.417l-67.417-11
			c-6.029-0.983-11.314-4.257-14.881-9.213c-3.567-4.958-4.992-11.01-4.007-17.039c1.015-6.223,4.465-11.451,9.22-14.872
			c4.753-3.419,10.81-5.03,17.032-4.015l7.473,1.219c8.176,1.334,15.886-4.213,17.22-12.389l1.22-7.474
			c2.031-12.445,13.807-20.917,26.252-18.887c6.028,0.983,11.314,4.256,14.881,9.215
			C2383.438,858.247,2384.862,864.298,2383.878,870.328z"/>
	</g>
</g>
<g>
	<g>
		<path fill="#FFBE3B" d="M819.659,610.473c-8.105,5.832-9.651,17.543-3.453,26.158l14.964,20.799
			c6.198,8.614,17.794,10.872,25.899,5.041c8.105-5.831,9.651-17.543,3.453-26.158l-14.964-20.799
			C839.36,606.898,827.764,604.642,819.659,610.473z"/>
		<path fill="#FFBE3B" d="M494.484,457.75l-14.963-20.799c-6.199-8.615-17.794-10.872-25.899-5.04
			c-8.105,5.831-9.651,17.542-3.453,26.157l14.964,20.799c6.197,8.615,17.793,10.872,25.898,5.041
			C499.137,478.077,500.682,466.365,494.484,457.75z"/>
		<path fill="#FFBE3B" d="M1076.687,554.968c-8.105,5.832-9.651,17.543-3.453,26.158l14.963,20.799
			c6.198,8.615,17.795,10.873,25.9,5.042c8.105-5.831,9.649-17.543,3.451-26.158l-14.964-20.799
			C1096.387,551.394,1084.792,549.137,1076.687,554.968z"/>
		<path fill="#FFBE3B" d="M849.344,197.706L697.698,306.811l-27.684-38.479c-18.566-25.804-53.42-32.587-77.696-15.122
			l-195.675,140.78c-24.275,17.466-28.922,52.668-10.356,78.474l254.392,353.583c18.564,25.803,53.419,32.587,77.695,15.122
			l151.647-109.105l27.685,38.479c18.565,25.804,53.42,32.589,77.696,15.123l195.673-140.781
			c24.275-17.465,28.922-52.67,10.356-78.474L927.04,212.828C908.474,187.023,873.621,180.24,849.344,197.706z M695.928,809.972
			c-8.092,5.822-19.71,3.561-25.898-5.041L415.638,451.348c-6.189-8.602-4.641-20.336,3.453-26.158l195.673-140.78
			c8.092-5.822,19.71-3.561,25.899,5.041l254.391,353.583c6.188,8.601,4.64,20.336-3.452,26.158L695.928,809.972z M1152.08,587.529
			c6.188,8.6,4.641,20.335-3.452,26.158l-195.673,140.78c-8.092,5.823-19.711,3.559-25.897-5.041l-27.685-38.478l14.675-10.559
			c24.276-17.466,28.922-52.67,10.358-78.473l-33.415-46.443c9.633-1.486,18.591-5.189,26.254-10.703
			c5.671-4.08,10.629-9.146,14.638-15.012l21.931,30.481l-14.675,10.559c-8.105,5.832-9.65,17.542-3.453,26.158
			c6.198,8.615,17.794,10.872,25.899,5.041l58.702-42.234c8.105-5.831,9.651-17.543,3.453-26.158
			c-6.198-8.615-17.794-10.872-25.899-5.041l-14.676,10.559l-21.931-30.482c6.836-1.937,13.215-5.028,18.886-9.107
			c13.242-9.53,22.636-24.42,25.007-42.392c2.297-17.413-2.255-35.09-12.82-49.775c-10.566-14.686-25.88-24.622-43.12-27.977
			l-101.711-19.797c-10.113-1.969-19.406,4.717-20.754,14.932l-10.219,77.417L720.144,338.01l151.647-109.105
			c8.092-5.822,19.711-3.561,25.899,5.041L1152.08,587.529z M849.788,504.384l11.117-84.233l83.4,16.231
			c7.456,1.451,14.08,5.75,18.649,12.103c4.57,6.351,6.54,13.998,5.546,21.531c-2.052,15.548-16.246,25.76-31.64,22.764
			l-9.246-1.801c-5.058-0.983-9.91,0.195-13.665,2.897c-3.755,2.701-6.416,6.928-7.09,12.035l-1.231,9.338
			c-2.051,15.55-16.247,25.76-31.641,22.765C858.591,535.019,847.736,519.932,849.788,504.384z"/>
		<path fill="#FFBE3B" d="M724.359,467.695c-10.566-14.687-25.88-24.623-43.121-27.979c-32.706-6.364-63.07,13.055-71.457,44.145
			c-32.139-1.928-60.207,20.687-64.567,53.72c-2.298,17.413,2.256,35.091,12.823,49.777c10.565,14.686,25.878,24.62,43.119,27.977
			l101.711,19.795c5.057,0.984,9.91-0.195,13.665-2.896c3.755-2.702,6.416-6.928,7.089-12.035l13.56-102.729
			C739.479,500.057,734.925,482.381,724.359,467.695z M700.554,510.343l-11.118,84.23l-83.396-16.232
			c-7.458-1.451-14.083-5.75-18.652-12.101c-4.57-6.353-6.542-14-5.546-21.532c1.025-7.775,5.085-14.214,10.816-18.337
			c5.729-4.121,13.127-5.926,20.825-4.428l9.244,1.799c10.113,1.969,19.406-4.717,20.754-14.932l1.233-9.338
			c2.053-15.549,16.246-25.76,31.641-22.764c7.457,1.45,14.083,5.75,18.652,12.102C699.578,495.163,701.549,502.809,700.554,510.343
			z"/>
	</g>
</g>
<g>
	<g>
		<g>
			<g>
				<path fill="#FFBF3E" d="M2248.354,1479.541l16.215,12.68l50.717-64.859c14.004-17.909,10.838-43.783-7.071-57.787
					c-17.91-14.005-43.783-10.839-57.788,7.071l-50.716,64.858l16.215,12.68l19.019-24.322l32.429,25.357L2248.354,1479.541z
					 M2247.624,1413.646l19.018-24.322c7.003-8.955,19.938-10.537,28.894-3.535c8.955,7.003,10.538,19.938,3.536,28.894
					l-19.02,24.321L2247.624,1413.646z"/>
				<path fill="#FFBF3E" d="M2367.831,1527.24c5.971-7.639,8.594-17.371,7.271-26.977c19.749-2.141,34.022-19.889,31.882-39.637
					c-1.05-9.672-5.972-18.507-13.643-24.488l-36.483-28.527l-76.074,97.288l36.482,28.528
					C2332.938,1545.682,2355.577,1542.911,2367.831,1527.24z M2360.394,1436.506l20.269,15.849
					c6.717,5.252,7.904,14.954,2.652,21.671c-5.251,6.716-14.954,7.903-21.671,2.65l-20.269-15.849L2360.394,1436.506z
					 M2328.696,1477.041l20.269,15.85c6.717,5.252,7.904,14.954,2.652,21.671s-14.954,7.903-21.671,2.651l-20.269-15.85
					L2328.696,1477.041z"/>
				<path fill="#FFBF3E" d="M2394.286,1593.652c17.911,14.006,43.783,10.84,57.788-7.07l-16.215-12.68
					c-7.002,8.955-19.938,10.538-28.894,3.535c-8.955-7.002-10.537-19.938-3.535-28.893l25.358-32.43
					c7.003-8.955,19.938-10.537,28.893-3.535c8.955,7.002,10.539,19.938,3.536,28.894l16.215,12.679
					c14.004-17.91,10.839-43.783-7.071-57.788c-17.909-14.004-43.782-10.838-57.788,7.072l-25.357,32.429
					C2373.211,1553.775,2376.378,1579.648,2394.286,1593.652z"/>
				<polygon fill="#FFBF3E" points="2191.851,1652.047 2180.726,1561.133 2160.299,1563.633 2173.923,1674.975 2376.901,1650.137 
					2374.403,1629.709 				"/>
				
					<rect x="2436.839" y="1620.878" transform="matrix(-0.9926 0.1215 -0.1215 -0.9926 5074.333 2952.8979)" fill="#FFBF3E" width="20.582" height="20.583"/>
				
					<rect x="2396.003" y="1625.893" transform="matrix(0.1215 0.9926 -0.9926 0.1215 3738.0986 -951.0247)" fill="#FFBF3E" width="20.583" height="20.583"/>
			</g>
		</g>
	</g>
	<g>
	</g>
	<g>
	</g>
	<g>
	</g>
	<g>
	</g>
	<g>
	</g>
	<g>
	</g>
	<g>
	</g>
	<g>
	</g>
	<g>
	</g>
	<g>
	</g>
	<g>
	</g>
	<g>
	</g>
	<g>
	</g>
	<g>
	</g>
	<g>
	</g>
</g>
<g>
	<g>
		<g>
			<g>
				<path fill="#FFBF3E" d="M413.726,865.917l3.34-6.78l-27.119-13.358c-7.488-3.688-16.55-0.608-20.238,6.88
					c-3.689,7.489-0.609,16.55,6.88,20.239l27.119,13.358l3.339-6.78l-10.169-5.009l6.679-13.56L413.726,865.917z M390.097,871.127
					l-10.169-5.009c-3.744-1.844-5.284-6.375-3.44-10.119c1.845-3.745,6.375-5.285,10.119-3.44l10.169,5.01L390.097,871.127z"/>
				<path fill="#FFBF3E" d="M421.899,819.395c-3.193-1.572-6.889-1.784-10.242-0.588c-2.252-6.937-9.703-10.734-16.64-8.482
					c-3.397,1.104-6.203,3.536-7.777,6.742l-7.514,15.254l40.678,20.038l7.514-15.254
					C431.146,830.551,428.451,822.623,421.899,819.395z M389.846,828.88l4.175-8.475c1.383-2.809,4.781-3.964,7.589-2.581
					s3.963,4.781,2.58,7.59l-4.174,8.475L389.846,828.88z M406.795,837.229l4.175-8.475c1.384-2.809,4.781-3.964,7.59-2.581
					c2.809,1.384,3.963,4.782,2.58,7.59l-4.175,8.475L406.795,837.229z"/>
				<path fill="#FFBF3E" d="M443.782,804.9c3.689-7.489,0.609-16.55-6.88-20.238l-3.339,6.779c3.744,1.844,5.284,6.375,3.439,10.12
					c-1.844,3.744-6.375,5.284-10.119,3.439l-13.56-6.679c-3.745-1.845-5.284-6.375-3.44-10.119c1.844-3.744,6.375-5.284,10.12-3.44
					l3.339-6.78c-7.489-3.688-16.55-0.608-20.239,6.88c-3.688,7.488-0.607,16.549,6.881,20.239l13.559,6.679
					C431.032,815.469,440.093,812.388,443.782,804.9z"/>
				<polygon fill="#FFBF3E" points="479.968,873.273 448.128,884.098 450.561,891.251 489.555,877.996 465.388,806.908 
					458.233,809.339 				"/>
				
					<rect x="449.52" y="779.313" transform="matrix(0.3219 0.9468 -0.9468 0.3219 1048.8184 101.8661)" fill="#FFBF3E" width="7.556" height="7.557"/>
				
					<rect x="454.388" y="793.613" transform="matrix(0.9468 -0.3219 0.3219 0.9468 -232.2822 189.9128)" fill="#FFBF3E" width="7.557" height="7.557"/>
			</g>
		</g>
	</g>
	<g>
	</g>
	<g>
	</g>
	<g>
	</g>
	<g>
	</g>
	<g>
	</g>
	<g>
	</g>
	<g>
	</g>
	<g>
	</g>
	<g>
	</g>
	<g>
	</g>
	<g>
	</g>
	<g>
	</g>
	<g>
	</g>
	<g>
	</g>
	<g>
	</g>
</g>
<g>
	<g id="XMLID_806_">
		<g id="XMLID_386_">
			<path id="XMLID_389_" fill="#FFBE3B" d="M2096.707,390.775c26.142,25.115,60.475,40.526,96.675,43.394
				c30.937,2.452,60.521-4.254,86.091-17.827l12.865,15.079c-6.917,9.677-6.664,23.195,1.397,32.643
				c9.493,11.126,26.269,12.455,37.395,2.962l42.731-36.457c11.127-9.493,12.456-26.268,2.963-37.395
				c-8.061-9.448-21.369-11.828-32.014-6.521l-12.901-15.122c17.347-23.078,28.573-51.165,31.017-82.013
				c0.535-6.75,0.634-13.438,0.32-20.033c0.159-0.117,0.316-0.232,0.469-0.362l42.293-36.083c3.277-2.796,3.669-7.72,0.872-10.999
				c-2.796-3.277-7.722-3.667-10.999-0.871l-34.668,29.577c-1.863-10.998-4.881-21.642-8.931-31.796l64.593-55.108
				c3.277-2.796,3.669-7.721,0.872-10.999s-7.722-3.667-10.999-0.871l-61.238,52.247c-4.695-8.968-10.232-17.446-16.518-25.325
				l26.245-22.391c3.277-2.796,3.668-7.721,0.871-10.999c-2.796-3.278-7.721-3.668-10.999-0.872l-26.434,22.552
				c-7.055-7.253-14.811-13.842-23.168-19.65l38.448-32.803c3.277-2.796,3.669-7.721,0.872-10.999
				c-2.797-3.278-7.721-3.667-10.999-0.871l-42.236,36.035c-18.962-10.434-40.378-17.108-63.317-18.925
				c-36.236-2.871-72.596,6.961-102.382,27.684c-4.251,2.959-8.338,6.115-12.257,9.458c-23.158,19.758-40.306,45.969-48.928,75.155
				c-1.22,4.132,1.14,8.471,5.271,9.692c4.132,1.221,8.473-1.14,9.692-5.271c18.875-63.889,80.853-106.434,147.37-101.165
				c78.047,6.185,136.512,74.71,130.329,152.759c-6.185,78.046-74.711,136.511-152.758,130.329
				c-66.431-5.264-120.926-56.962-129.578-122.926c-0.56-4.272-4.478-7.282-8.749-6.721c-4.273,0.561-7.281,4.478-6.721,8.75
				C2054.189,332.961,2070.931,366.01,2096.707,390.775z M2364.953,403.301c3.909,4.582,3.363,11.489-1.219,15.398l-42.731,36.457
				c-4.582,3.909-11.489,3.362-15.398-1.22c-3.909-4.582-3.361-11.489,1.22-15.397l1.064-0.908l40.604-34.642l1.063-0.907
				C2354.139,398.171,2361.045,398.72,2364.953,403.301z M2321.78,383.699l10.65,12.483l-28.734,24.515l-10.632-12.461
				C2303.574,401.229,2313.221,392.987,2321.78,383.699z"/>
			<path id="XMLID_391_" fill="#FFBE3B" d="M2061.571,271.181c1.566-1.337,2.551-3.274,2.711-5.318
				c0.169-2.051-0.508-4.119-1.839-5.68c-1.332-1.562-3.27-2.555-5.32-2.711c-2.049-0.169-4.112,0.503-5.68,1.839
				c-1.561,1.332-2.548,3.262-2.711,5.319c-0.162,2.045,0.508,4.119,1.84,5.681c1.332,1.561,3.272,2.551,5.32,2.711
				C2057.943,273.178,2060.011,272.512,2061.571,271.181z"/>
			<path id="XMLID_394_" fill="#FFBE3B" d="M2284.379,369.141c50.766-43.312,56.83-119.851,13.518-170.618
				c-43.313-50.766-119.852-56.83-170.617-13.518s-56.83,119.851-13.518,170.617
				C2157.074,406.389,2233.613,412.453,2284.379,369.141z M2137.406,196.874c44.222-37.729,110.893-32.446,148.621,11.775
				c37.728,44.221,32.445,110.893-11.775,148.621c-44.223,37.729-110.894,32.446-148.621-11.775
				C2087.902,301.274,2093.185,234.604,2137.406,196.874z"/>
			<path id="XMLID_397_" fill="#FFBE3B" d="M2207.479,355.037l4.314-54.475c3.497-0.882,6.848-2.555,9.771-5.048
				c2.923-2.494,5.103-5.539,6.522-8.852l24.381,1.932c4.295,0.34,8.053-2.866,8.395-7.161c0.34-4.294-2.867-8.053-7.162-8.394
				l-24.38-1.931c-0.882-3.497-2.554-6.847-5.048-9.77c-8.676-10.168-24.008-11.384-34.176-2.708
				c-10.17,8.676-11.384,24.008-2.708,34.176c2.493,2.923,5.538,5.103,8.853,6.523l-4.19,52.877l0,0l-0.126,1.598
				c-0.341,4.295,2.865,8.054,7.16,8.394C2203.38,362.539,2207.136,359.334,2207.479,355.037z M2200.222,270.5
				c3.623-3.091,9.087-2.659,12.179,0.965c3.093,3.625,2.659,9.089-0.964,12.18c-3.624,3.092-9.088,2.659-12.181-0.965
				C2196.164,279.056,2196.598,273.592,2200.222,270.5z"/>
			<path id="XMLID_398_" fill="#FFBE3B" d="M2147.374,337.074l5.499-4.692c3.278-2.796,3.669-7.72,0.872-10.999
				c-2.796-3.278-7.721-3.667-10.999-0.871l-5.498,4.692c-3.277,2.795-3.668,7.72-0.871,10.998
				C2139.174,339.48,2144.098,339.869,2147.374,337.074z"/>
			<path id="XMLID_399_" fill="#FFBE3B" d="M2268.912,233.632l5.498-4.691c3.277-2.797,3.668-7.721,0.871-10.999
				c-2.797-3.278-7.721-3.667-10.998-0.871l-5.498,4.691c-3.277,2.796-3.668,7.72-0.871,10.998S2265.635,236.428,2268.912,233.632z"
				/>
			<path id="XMLID_400_" fill="#FFBE3B" d="M2250.141,329.157c-3.277,2.796-3.668,7.72-0.871,10.998l4.691,5.499
				c2.796,3.278,7.721,3.667,10.998,0.872c3.277-2.796,3.668-7.721,0.871-10.999l-4.691-5.498
				C2258.343,326.751,2253.418,326.36,2250.141,329.157z"/>
			<path id="XMLID_424_" fill="#FFBE3B" d="M2161.518,224.988c3.277-2.797,3.668-7.721,0.871-10.999l-4.691-5.499
				c-2.796-3.277-7.721-3.668-10.998-0.871c-3.277,2.795-3.668,7.72-0.871,10.998l4.691,5.499
				C2153.315,227.394,2158.24,227.784,2161.518,224.988z"/>
			<path id="XMLID_425_" fill="#FFBE3B" d="M2357.698,94.481c1.561-1.332,2.551-3.273,2.713-5.319
				c0.161-2.045-0.51-4.118-1.841-5.679c-1.337-1.567-3.273-2.551-5.319-2.713c-2.046-0.161-4.119,0.51-5.681,1.842
				c-1.561,1.332-2.549,3.273-2.711,5.318c-0.162,2.046,0.51,4.119,1.841,5.68c1.331,1.561,3.273,2.55,5.319,2.712
				C2354.064,96.485,2356.137,95.813,2357.698,94.481z"/>
		</g>
	</g>
</g>
<g>
	<g>
		<path fill="#FFBB33" d="M407.334,1209.392l-72.322-118.022c-7.818-12.703-24.141-17.177-37.343-10.233l21.813-28.89
			c9.41-12.491,6.934-30.242-5.535-39.681l-110.467-83.41c-12.492-9.408-30.242-6.929-39.679,5.541L38.897,1100.117
			c-9.409,12.491-6.933,30.24,5.535,39.681l70.883,53.521c-10.244,9.114-12.497,24.254-5.351,35.956l72.319,118.021
			c8.168,13.34,25.604,17.533,38.945,9.365c0.002,0,0.004-0.002,0.006-0.004l176.739-108.299
			C411.308,1240.176,415.496,1222.739,407.334,1209.392z M50.075,1108.547l124.899-165.415c4.772-6.31,13.752-7.564,20.071-2.804
			l110.451,83.398c6.308,4.773,7.56,13.754,2.798,20.07L183.39,1209.219c-4.772,6.309-13.752,7.564-20.071,2.804l-110.451-83.397
			c-6.309-4.774-7.56-13.754-2.798-20.071L50.075,1108.547z M390.671,1236.404l-176.745,108.309
			c-6.749,4.13-15.567,2.013-19.704-4.732l-72.319-118.02c-4.127-6.749-2.011-15.565,4.729-19.707
			c0.094-0.058,0.167-0.134,0.258-0.195l28.008,21.148c12.492,9.408,30.243,6.93,39.68-5.54l80.168-106.173l28.621-17.54
			c6.751-4.122,15.564-2.006,19.708,4.731l72.329,118.008c4.137,6.742,2.024,15.563-4.72,19.699
			c-0.003,0.002-0.006,0.004-0.01,0.006L390.671,1236.404z"/>
		<path fill="#FFBB33" d="M328.226,1182.509c0.889-3.765-1.436-7.538-5.198-8.437l-55.668-13.364
			c-16.087-3.883-32.275,6.011-36.158,22.097c-3.426,14.191,3.874,28.785,17.285,34.556l-8.191,5.013l-3.487-5.691
			c-2.021-3.295-6.331-4.329-9.627-2.309c-3.295,2.021-4.33,6.332-2.308,9.627l14.559,23.785c0.455,0.747,1.048,1.402,1.746,1.93
			c3.081,2.334,7.472,1.729,9.806-1.352c1.745-2.301,1.897-5.438,0.384-7.896l-3.768-6.147l8.203-5.023
			c-1.048,16.518,11.494,30.757,28.011,31.805c14.538,0.923,27.633-8.743,31.035-22.907L328.226,1182.509z M294.063,1244.803
			c-7.521,4.612-17.358,2.254-21.972-5.266c-2.218-3.615-2.907-7.966-1.915-12.09l2.637-10.98c0.651-2.709-0.365-5.547-2.588-7.227
			c-0.768-0.582-1.65-0.998-2.588-1.217l-11.004-2.646c-8.58-2.059-13.867-10.685-11.807-19.266
			c2.059-8.58,10.685-13.866,19.266-11.807l48.908,11.742l-11.729,48.863c-0.985,4.13-3.581,7.692-7.209,9.895L294.063,1244.803z"/>
		<path fill="#FFBB33" d="M204.57,1047.625l-4.278,0.594l-0.594-4.253c-2.288-16.399-17.438-27.839-33.837-25.55
			c-16.399,2.289-27.838,17.438-25.55,33.838l7.919,56.703c0.523,3.65,3.78,6.275,7.459,6.012c0.155-0.013,0.308-0.028,0.464-0.05
			l56.701-7.911c16.399-2.287,27.838-17.438,25.549-33.836c-2.288-16.4-17.438-27.84-33.837-25.551L204.57,1047.625z
			 M210.919,1093.143l-49.793,6.946l-6.943-49.771c-1.131-8.754,5.047-16.766,13.799-17.896c8.629-1.117,16.565,4.877,17.853,13.482
			l1.564,11.205c0.537,3.827,4.072,6.497,7.9,5.965l11.205-1.563c8.801-0.79,16.576,5.705,17.365,14.507
			c0.735,8.194-4.865,15.611-12.947,17.146L210.919,1093.143z"/>
	</g>
</g>
<g>
	<g>
		<g>
			<path fill="#FFBE3B" d="M216.543,601.332c-6.44-0.62-13.12,0.322-19.485,3.042l-15.127,6.467
				c-6.543,2.798-11.954,7.135-15.991,12.407c-8.492,11.078-10.921,26.294-5.044,40.043l4.846,11.334l88.611-37.883l-4.846-11.334
				C243.554,611.482,230.627,602.681,216.543,601.332z"/>
		</g>
	</g>
	<g>
		<g>
			<path fill="#FFBE3B" d="M252.104,568.933l-12.576,5.376c-7.343,3.139-13.259,8.235-17.4,14.43
				c3.532,0.629,7.028,1.635,10.439,3.003c13.186,5.288,23.525,15.397,29.111,28.464l2.279,5.331l47.07-20.123l-6.63-15.509
				C295.762,569.706,272.302,560.298,252.104,568.933z"/>
		</g>
	</g>
	<g>
		<g>
			<path fill="#FFBE3B" d="M130.24,621.031l-12.576,5.376c-20.198,8.636-29.606,32.095-20.972,52.293l6.631,15.509l47.683-20.385
				l-2.279-5.331c-5.586-13.066-5.747-27.527-0.458-40.713c1.317-3.283,2.93-6.391,4.82-9.287
				C145.636,617.112,137.716,617.835,130.24,621.031z"/>
		</g>
	</g>
	<g>
		<g>
			<path fill="#FFBE3B" d="M222.244,516.535c-0.064,0.027-0.131,0.057-0.196,0.085c-13.566,5.933-19.514,22.393-13.261,36.692
				c6.224,14.231,22.222,21.041,35.747,15.258c0.065-0.027,0.131-0.056,0.196-0.085c6.652-2.909,11.678-8.384,14.155-15.418
				c2.418-6.87,2.102-14.425-0.893-21.273C251.768,517.563,235.77,510.752,222.244,516.535z"/>
		</g>
	</g>
	<g>
		<g>
			<path fill="#FFBE3B" d="M100.38,568.633c-0.064,0.028-0.131,0.057-0.196,0.086c-13.566,5.932-19.515,22.392-13.261,36.691
				c6.223,14.231,22.222,21.041,35.747,15.259c0.065-0.027,0.131-0.056,0.196-0.085c6.651-2.909,11.679-8.384,14.155-15.418
				c2.419-6.871,2.102-14.426-0.894-21.274C129.903,569.661,113.906,562.851,100.38,568.633z"/>
		</g>
	</g>
	<g>
		<g>
			<path fill="#FFBE3B" d="M159.91,538.399c-15.695,6.71-22.695,25.657-15.606,42.241c5.124,11.983,16.226,19.501,27.916,20.213
				c4.484,0.276,9.052-0.454,13.401-2.313c4.349-1.859,8.033-4.658,10.932-8.09c7.563-8.943,9.799-22.164,4.676-34.146
				C194.138,539.72,175.605,531.689,159.91,538.399z"/>
		</g>
	</g>
	<g>
	</g>
	<g>
	</g>
	<g>
	</g>
	<g>
	</g>
	<g>
	</g>
	<g>
	</g>
	<g>
	</g>
	<g>
	</g>
	<g>
	</g>
	<g>
	</g>
	<g>
	</g>
	<g>
	</g>
	<g>
	</g>
	<g>
	</g>
	<g>
	</g>
</g>
<g>
	<g>
		<g>
			<path fill="#FFBE3B" d="M2040.939,61.949c1.927,2.473,4.484,4.51,7.562,5.843l7.315,3.169c3.164,1.371,6.492,1.831,9.692,1.495
				c6.728-0.701,12.892-4.915,15.771-11.563l2.375-5.48l-42.848-18.565l-2.375,5.48
				C2035.515,49.062,2036.724,56.542,2040.939,61.949z"/>
		</g>
	</g>
	<g>
		<g>
			<path fill="#FFBE3B" d="M2017.693,60.226l6.081,2.635c3.551,1.539,7.313,1.922,10.874,1.317
				c-0.955-1.453-1.767-3.019-2.421-4.674c-2.53-6.401-2.417-13.408,0.32-19.727l1.116-2.578l-22.76-9.862l-3.25,7.5
				C2003.423,44.604,2007.927,55.994,2017.693,60.226z"/>
		</g>
	</g>
	<g>
		<g>
			<path fill="#FFBE3B" d="M2076.62,85.759l6.081,2.635c9.768,4.232,21.156-0.271,25.389-10.039l3.249-7.5l-23.057-9.991
				l-1.117,2.578c-2.737,6.318-7.773,11.191-14.175,13.723c-1.594,0.631-3.225,1.098-4.874,1.397
				C2070.111,81.646,2073.005,84.192,2076.62,85.759z"/>
		</g>
	</g>
	<g>
		<g>
			<path fill="#FFBE3B" d="M2009.199,88.188c0.031,0.013,0.064,0.027,0.096,0.041c6.606,2.798,14.38-0.592,17.33-7.556
				c2.935-6.93,0.003-14.829-6.538-17.663c-0.031-0.013-0.063-0.027-0.095-0.04c-3.24-1.373-6.841-1.318-10.141,0.154
				c-3.225,1.437-5.776,4.065-7.189,7.401C1999.727,77.455,2002.659,85.354,2009.199,88.188z"/>
		</g>
	</g>
	<g>
		<g>
			<path fill="#FFBE3B" d="M2068.126,113.722c0.032,0.013,0.064,0.027,0.096,0.04c6.606,2.799,14.381-0.591,17.33-7.555
				c2.935-6.931,0.002-14.83-6.538-17.663c-0.031-0.014-0.063-0.027-0.095-0.041c-3.239-1.372-6.841-1.317-10.141,0.155
				c-3.224,1.437-5.776,4.065-7.189,7.4C2058.654,102.988,2061.586,110.887,2068.126,113.722z"/>
		</g>
	</g>
	<g>
		<g>
			<path fill="#FFBE3B" d="M2037.657,102.842c7.589,3.289,16.589-0.559,20.063-8.578c2.511-5.794,1.457-12.207-2.186-16.558
				c-1.396-1.67-3.175-3.035-5.277-3.946c-2.103-0.91-4.314-1.274-6.488-1.152c-5.666,0.318-11.064,3.934-13.574,9.728
				C2026.721,90.356,2030.067,99.553,2037.657,102.842z"/>
		</g>
	</g>
	<g>
	</g>
	<g>
	</g>
	<g>
	</g>
	<g>
	</g>
	<g>
	</g>
	<g>
	</g>
	<g>
	</g>
	<g>
	</g>
	<g>
	</g>
	<g>
	</g>
	<g>
	</g>
	<g>
	</g>
	<g>
	</g>
	<g>
	</g>
	<g>
	</g>
</g>
<g>
	<path fill="#FFBE3B" d="M302.531,101.745c-7.903,7.668-16.858,16.362-21.402,26.563c-1.362,3.056-1.084,6.595,0.741,9.404
		c1.823,2.809,4.942,4.502,8.289,4.502h34.355c5.46,0,9.885-4.427,9.885-9.885c0-5.46-4.425-9.885-9.885-9.885h-14.789
		c2.16-2.229,4.412-4.417,6.574-6.513c9.713-9.427,18.102-17.569,18.102-27.76c0-15.078-12.266-27.344-27.341-27.344
		c-11.018,0-20.9,6.557-25.179,16.707c-2.121,5.03,0.237,10.828,5.267,12.949c5.033,2.124,10.83-0.237,12.948-5.267
		c1.184-2.806,3.916-4.618,6.963-4.618c4.108,0,7.465,3.292,7.568,7.38C313.871,90.738,307.057,97.351,302.531,101.745z"/>
	<path fill="#FFBE3B" d="M156.84,99.047l4.186-4.188v27.506h-6.912c-5.459,0-9.885,4.425-9.885,9.885s4.425,9.885,9.885,9.885
		h33.589c5.458,0,9.885-4.425,9.885-9.885s-4.428-9.885-9.885-9.885h-6.907V70.978c0-3.998-2.41-7.604-6.104-9.131
		c-3.694-1.532-7.947-0.682-10.773,2.144l-21.065,21.083c-3.859,3.861-3.856,10.122,0.007,13.981
		C146.723,102.911,152.981,102.911,156.84,99.047z"/>
	<path fill="#FFBE3B" d="M446.974,157.748c-8.006,0-15.533,3.12-21.193,8.783c-5.661,5.664-8.778,13.193-8.778,21.199
		c0,16.532,13.445,29.982,29.972,29.985c8.006,0,15.533-3.12,21.194-8.783c5.661-5.664,8.778-13.193,8.778-21.199
		C476.946,171.198,463.501,157.748,446.974,157.748z M454.187,194.956c-1.928,1.925-4.489,2.989-7.213,2.989
		c-5.625,0-10.202-4.583-10.202-10.212c0-2.729,1.063-5.295,2.991-7.223c1.926-1.928,4.487-2.989,7.21-2.989
		c5.627,0,10.202,4.58,10.202,10.212C457.176,190.461,456.115,193.025,454.187,194.956z"/>
	<path fill="#FFBE3B" d="M307.484,217.714c8.006,0,15.533-3.12,21.193-8.783c5.661-5.664,8.776-13.19,8.776-21.199
		c0-16.531-13.445-29.982-29.969-29.982c-0.003,0,0,0-0.003,0c-8.006,0-15.533,3.118-21.193,8.783
		c-5.658,5.661-8.776,13.19-8.776,21.199C277.512,204.264,290.958,217.714,307.484,217.714z M300.271,180.509
		c1.926-1.928,4.49-2.991,7.213-2.991c5.625,0,10.199,4.582,10.199,10.214c0,2.729-1.061,5.293-2.988,7.221
		c-1.928,1.928-4.487,2.991-7.21,2.991c-5.627,0-10.202-4.583-10.202-10.215C297.283,185.001,298.343,182.437,300.271,180.509z"/>
	<path fill="#FFBE3B" d="M230.031,188.607c0-5.154-4.175-9.329-9.324-9.329c-5.151,0-9.324,4.175-9.324,9.329
		c0,5.151,4.173,9.329,9.324,9.329C225.855,197.937,230.031,193.758,230.031,188.607z"/>
	<path fill="#FFBE3B" d="M265.946,188.607c0-5.154-4.173-9.329-9.321-9.329c-5.151,0-9.324,4.175-9.324,9.329
		c0,5.151,4.173,9.329,9.324,9.329C261.773,197.937,265.946,193.758,265.946,188.607z"/>
	<path fill="#FFBE3B" d="M367.533,188.607c0-5.154-4.173-9.329-9.324-9.329c-5.148,0-9.324,4.175-9.324,9.329
		c0,5.151,4.175,9.329,9.324,9.329C363.36,197.937,367.533,193.758,367.533,188.607z"/>
	<path fill="#FFBE3B" d="M403.452,188.607c0-5.154-4.173-9.329-9.324-9.329c-5.148,0-9.324,4.175-9.324,9.329
		c0,5.151,4.176,9.329,9.324,9.329C399.279,197.937,403.452,193.758,403.452,188.607z"/>
	<path fill="#FFBE3B" d="M332.967,233.224h-49.155c-5.46,0-9.885,4.425-9.885,9.885s4.425,9.885,9.885,9.885h49.155
		c5.46,0,9.885-4.425,9.885-9.885S338.427,233.224,332.967,233.224z"/>
	<path fill="#FFBE3B" d="M190.457,159.027l-27.393,27.472l-6.652-6.654c-3.858-3.864-10.117-3.864-13.978-0.005
		c-3.864,3.859-3.864,10.117-0.005,13.979l13.651,13.659c1.854,1.856,4.369,2.898,6.992,2.898h0.005
		c2.623,0,5.141-1.045,6.994-2.904l34.384-34.484c3.856-3.866,3.846-10.125-0.021-13.978
		C200.571,155.153,194.311,155.163,190.457,159.027z"/>
	<path fill="#FFBE3B" d="M446.686,142.434c14.902,0,26.911-11.888,27.338-27.066c0.108-3.876-0.435-13.72-7.829-21.325
		c-1.212-1.249-2.765-2.577-4.708-3.789l9.903-13.34c2.227-2.999,2.574-7,0.896-10.335c-1.678-3.336-5.097-5.442-8.832-5.442
		h-29.637c-5.46,0-9.885,4.425-9.885,9.885s4.425,9.885,9.885,9.885h9.988l-6.685,9.002c-2.227,2.999-2.574,6.997-0.894,10.335
		c1.679,3.336,5.095,5.442,8.83,5.442c3.241,0,5.586,0.721,6.966,2.139c1.748,1.8,2.299,4.889,2.239,6.989
		c-0.124,4.402-3.452,7.849-7.576,7.849c-3.045,0-5.777-1.812-6.961-4.615c-2.119-5.033-7.918-7.391-12.948-5.27
		c-5.03,2.121-7.388,7.918-5.267,12.948C425.788,135.877,435.671,142.434,446.686,142.434z"/>
</g>
<g>
	<path fill="#FFBD39" d="M2139.394,1841.814h-479.564c-8.956,0-16.218,7.262-16.218,16.218v283.936
		c0,8.956,7.262,16.218,16.218,16.218h479.564c8.956,0,16.218-7.262,16.218-16.218v-283.936
		C2155.611,1849.075,2148.351,1841.814,2139.394,1841.814z M2123.176,2125.75h-447.129v-251.5h447.129V2125.75z"/>
	<path fill="#FFBD39" d="M1723.688,1969.094v84.811c0,8.956,7.262,16.218,16.218,16.218c8.957,0,16.219-7.262,16.219-16.218v-107.81
		c0-12.966-14.527-20.705-25.289-13.444l-11.22,7.569C1708.333,1947.833,1710.988,1964.992,1723.688,1969.094z"/>
	<path fill="#FFBD39" d="M1849.791,1973.536l24.258-11.24c7.14-2.002,15.087,1.516,18.345,8.237
		c4.022,8.305,0.174,18.043-8.162,21.459c-1.429,0.585,1.417-0.972-39.045,22.191c-9.304,5.326-15.083,15.294-15.083,26.015
		c0,16.354,13.306,29.8,29.658,29.974c65.18,0.689,47.252,0.533,50.459,0.533c8.877,0,16.12-7.148,16.214-16.047
		c0.096-8.956-7.089-16.294-16.046-16.389l-41.226-0.437l28.448-16.286c24.374-10.697,36.222-39.876,23.971-65.157
		c-12.047-24.864-41.83-32.475-60.201-23.973l-25.227,11.688c-8.127,3.766-11.662,13.407-7.896,21.533
		S1841.662,1977.301,1849.791,1973.536L1849.791,1973.536z"/>
	<path fill="#FFBD39" d="M1999.941,1960.276h37.22l-13.479,13.69c-10.073,10.231-2.801,27.597,11.557,27.597
		c11.03,0,20.262,9.498,18.956,21.318c-2.076,18.798-27.731,23.238-36.109,6.135c-3.94-8.044-13.657-11.371-21.698-7.43
		c-8.045,3.939-11.371,13.655-7.431,21.698c9.692,19.786,30.937,31.19,52.813,28.468c45.698-5.685,62.127-65.941,23.018-93.302
		l8.842-8.98c15.195-15.434,4.244-41.629-17.434-41.629h-56.254c-8.957,0-16.219,7.262-16.219,16.218
		S1990.984,1960.276,1999.941,1960.276z"/>
</g>
<g>
	<path fill="#FFBD39" d="M1986.684,538.714l78.831,115.836c1.473,2.164,4.42,2.724,6.583,1.251l68.583-46.674
		c2.163-1.472,2.724-4.419,1.251-6.583l-78.831-115.836c-1.472-2.163-4.419-2.724-6.583-1.251l-68.582,46.673
		C1985.771,533.604,1985.211,536.551,1986.684,538.714z M2057.933,495.958l73.499,108.001l-60.748,41.342l-73.5-108.001
		L2057.933,495.958z"/>
	<path fill="#FFBD39" d="M2085.761,618.203l20.485-13.941c2.164-1.472,2.725-4.419,1.252-6.583s-4.42-2.724-6.584-1.251
		l-26.04,17.722c-3.132,2.131-2.613,6.912,0.909,8.318l3.672,1.465C2083.149,625.407,2086.857,621.945,2085.761,618.203z"/>
	<path fill="#FFBD39" d="M2066.105,587.013l-6.703-4.011c-1.657-1.396-2.113-3.894-1.025-5.785c1.344-2.336,4.329-3.008,6.524-1.556
		c0.376,0.25-0.468-0.183,11.778,5.784c2.816,1.372,6.174,1.129,8.764-0.633c3.95-2.688,5.011-8.113,2.365-12.091
		c-10.549-15.857-7.64-11.502-8.166-12.276c-1.459-2.144-4.377-2.718-6.541-1.278c-2.18,1.45-2.771,4.391-1.321,6.57l6.671,10.029
		l-8.609-4.194c-6.592-4.129-15.587-2.195-19.68,4.92c-4.025,6.997-0.968,15.442,4.105,18.481l6.971,4.172
		c2.245,1.344,5.155,0.614,6.499-1.632S2068.351,588.358,2066.105,587.013L2066.105,587.013z"/>
	<path fill="#FFBD39" d="M2038.221,552.925l-6.118-8.991l5.522,1.006c4.127,0.751,7.126-3.86,4.767-7.327
		c-1.813-2.664-1.037-6.456,2.032-8.084c4.883-2.587,10.172,2.879,7.418,7.714c-1.296,2.273-0.502,5.168,1.772,6.462
		c2.273,1.295,5.168,0.502,6.462-1.772c3.187-5.593,2.449-12.599-1.805-17.436c-8.885-10.104-26.141-4.167-26.32,9.776l-3.623-0.659
		c-6.226-1.133-10.752,5.818-7.188,11.054l9.247,13.587c1.472,2.164,4.419,2.724,6.582,1.252
		C2039.133,558.036,2039.693,555.089,2038.221,552.925z"/>
</g>
</svg>
