<?xml version="1.0" encoding="utf-8"?>
<!-- Generator: Adobe Illustrator 16.0.0, SVG Export Plug-In . SVG Version: 6.00 Build 0)  -->
<!DOCTYPE svg PUBLIC "-//W3C//DTD SVG 1.1//EN" "http://www.w3.org/Graphics/SVG/1.1/DTD/svg11.dtd">
<svg version="1.1" id="Layer_1" xmlns="http://www.w3.org/2000/svg" xmlns:xlink="http://www.w3.org/1999/xlink" x="0px" y="0px"
	 width="2560px" height="2000px" viewBox="0 0 2560 2000" enable-background="new 0 0 2560 2000" xml:space="preserve">
<g>
	<g>
		<path d="M724.411,1078.04l890.025,890.009c20.584,20.603,48.063,31.951,77.364,31.951c29.302,0,56.779-11.35,77.365-31.951
			l65.544-65.526c42.65-42.699,42.65-112.099,0-154.73l-747.376-747.376l748.205-748.206c20.585-20.602,31.951-48.064,31.951-77.349
			c0-29.316-11.366-56.78-31.951-77.397l-65.544-65.512C1749.396,11.35,1721.933,0,1692.631,0c-29.301,0-56.78,11.35-77.364,31.951
			L724.411,922.773c-20.635,20.666-31.967,48.26-31.902,77.593C692.444,1029.813,703.776,1057.39,724.411,1078.04z"/>
	</g>
</g>
</svg>
